<?xml version="1.0" standalone="no"?>
<!DOCTYPE svg PUBLIC "-//W3C//DTD SVG 1.1//EN" "http://www.w3.org/Graphics/SVG/1.1/DTD/svg11.dtd" >
<svg xmlns="http://www.w3.org/2000/svg" xmlns:xlink="http://www.w3.org/1999/xlink" version="1.1">
<metadata></metadata>
<defs>
<font id="quanticoregular" horiz-adv-x="1443" >
<font-face units-per-em="2048" ascent="1638" descent="-410" />
<missing-glyph horiz-adv-x="532" />
<glyph horiz-adv-x="0" />
<glyph horiz-adv-x="682" />
<glyph unicode=" "  horiz-adv-x="532" />
<glyph unicode="&#x09;" horiz-adv-x="532" />
<glyph unicode="&#xa0;" horiz-adv-x="532" />
<glyph unicode="!" horiz-adv-x="716" d="M205 0v307h307v-307h-307zM276 549l-53 946h271l-54 -946h-164z" />
<glyph unicode="&#x22;" horiz-adv-x="880" d="M184 897l-41 598h226l-41 -598h-144zM553 897l-41 598h225l-41 -598h-143z" />
<glyph unicode="#" horiz-adv-x="1548" d="M872 -41l35 393h-360l-35 -393h-170l35 393h-254v156h268l39 434h-307v156h321l35 377h170l-35 -377h361l35 377h170l-35 -377h280v-156h-295l-38 -434h333v-156h-348l-35 -393h-170zM600 942l-39 -434h361l39 434h-361z" />
<glyph unicode="$" horiz-adv-x="1320" d="M565 -252v242h-164l-237 137v211h205v-164h563v447h-510l-238 137v549l238 137h143v242h205v-242h129l238 -137v-211h-205v164h-543v-435h510l238 -137v-561l-238 -137h-129v-242h-205z" />
<glyph unicode="%" horiz-adv-x="2029" d="M870 868l-237 -137h-232l-237 137v449l237 137h232l237 -137v-449zM350 1288v-391h334v391h-334zM1448 1454h184l-1050 -1474h-185zM1159 565l238 137h231l238 -137v-448l-238 -137h-231l-238 137v448zM1679 145v392h-333v-392h333z" />
<glyph unicode="&#x26;" horiz-adv-x="1341" d="M1280 834v-185h-152v-522l-237 -137h-469l-238 137v510l178 102v4l-178 103v461l238 137h387l238 -137v-232h-205v185h-453v-426h359v-185h-359v-475h535v522l237 138h119z" />
<glyph unicode="'" horiz-adv-x="512" d="M184 897l-41 598h226l-41 -598h-144z" />
<glyph unicode="(" horiz-adv-x="743" d="M348 1352v-1618h273v-144h-199l-238 138v1630l238 137h199v-143h-273z" />
<glyph unicode=")" horiz-adv-x="743" d="M395 -266v1618h-272v143h199l237 -137v-1630l-237 -138h-199v144h272z" />
<glyph unicode="*" horiz-adv-x="1290" d="M575 1073l-20 381h180l-20 -381l354 137l57 -170l-366 -98l237 -293l-145 -108l-207 315l-207 -315l-145 108l237 293l-366 98l57 170z" />
<glyph unicode="+" horiz-adv-x="1228" d="M102 608h416v416h193v-416h415v-192h-415v-416h-193v416h-416v192z" />
<glyph unicode="," horiz-adv-x="716" d="M205 -410v717h307v-86l-221 -631h-86z" />
<glyph unicode="-" horiz-adv-x="897" d="M143 446v179h611v-179h-611z" />
<glyph unicode="." horiz-adv-x="716" d="M205 0v307h307v-307h-307z" />
<glyph unicode="/" horiz-adv-x="790" d="M61 -41l484 1516h184l-483 -1516h-185z" />
<glyph unicode="0" horiz-adv-x="1361" d="M1178 127l-238 -137h-518l-238 137v1180l238 137h518l238 -137v-1180zM389 1260v-1086h584v1086h-584z" />
<glyph unicode="1" horiz-adv-x="1167" d="M184 1004v206l389 224h164v-1250h348v-184h-901v184h348v1020z" />
<glyph unicode="2" horiz-adv-x="1290" d="M389 184h717v-184h-922v643l238 137h479v469h-512v-184h-205v231l238 138h446l238 -138v-563l-238 -137h-479v-412z" />
<glyph unicode="3" horiz-adv-x="1333" d="M911 -10h-489l-238 137v231h205v-184h555v475h-420v185h420v426h-555v-185h-205v232l238 137h489l238 -137v-461l-178 -103v-4l178 -102v-510z" />
<glyph unicode="4" horiz-adv-x="1277" d="M991 332v-332h-200v332h-709v176l721 926h188v-924h185v-178h-185zM295 510h496v631h-5l-491 -627v-4z" />
<glyph unicode="5" horiz-adv-x="1320" d="M430 1249v-366h469l238 -138v-618l-238 -137h-477l-238 137v231h205v-184h543v524h-707v736h891v-185h-686z" />
<glyph unicode="6" horiz-adv-x="1300" d="M389 1260v-504l146 84h344l237 -138v-575l-237 -137h-457l-238 137v1180l238 137h457l237 -137v-232h-205v185h-522zM389 655v-481h522v481h-522z" />
<glyph unicode="7" horiz-adv-x="1259" d="M559 0h-217l571 1245v4h-585v-184h-205v369h1034v-123z" />
<glyph unicode="8" horiz-adv-x="1320" d="M389 174h543v475h-543v-475zM389 834h543v426h-543v-426zM899 -10h-510l-205 137v510l178 102v4l-178 103v461l238 137h477l238 -137v-461l-179 -103v-4l179 -102v-510z" />
<glyph unicode="9" horiz-adv-x="1300" d="M911 174v504l-145 -84h-344l-238 137v576l238 137h457l237 -137v-1180l-237 -137h-457l-238 137v231h205v-184h522zM911 778v482h-522v-482h522z" />
<glyph unicode=":" horiz-adv-x="716" d="M205 0v307h307v-307h-307zM205 717v307h307v-307h-307z" />
<glyph unicode=";" horiz-adv-x="716" d="M205 717v307h307v-307h-307zM205 -410v717h307v-86l-221 -631h-86z" />
<glyph unicode="&#x3c;" horiz-adv-x="1331" d="M1147 1026v-192l-825 -320v-4l825 -320v-192l-1024 410v208z" />
<glyph unicode="=" horiz-adv-x="1392" d="M1208 375v-193h-1024v193h1024zM1208 842v-193h-1024v193h1024z" />
<glyph unicode="&#x3e;" horiz-adv-x="1331" d="M184 834v192l1024 -410v-208l-1024 -410v192l826 320v4z" />
<glyph unicode="?" horiz-adv-x="1187" d="M608 801l-18 -252h-164l-20 299l237 137h156v326h-410v-185h-205v232l238 137h344l238 -137v-420l-238 -137h-158zM354 0v307h308v-307h-308z" />
<glyph unicode="@" horiz-adv-x="2068" d="M1647 -289h-1225l-238 137v1459l238 137h1225l237 -137v-1094l-237 -137h-347l-135 84l-155 -84h-207l-223 137l79 750l252 137h207l135 -84l156 84h53l-90 -860h328v1040h-1331v-1405h1278v-164zM854 922l-72 -668h392l71 668h-391z" />
<glyph unicode="A" horiz-adv-x="1359" d="M807 1434l512 -1434h-201l-121 340h-635l-120 -340h-201l512 1434h254zM678 1231l-250 -707h504l-250 707h-4z" />
<glyph unicode="B" horiz-adv-x="1341" d="M1157 846l-178 -103v-4l178 -102v-500l-237 -137h-736v1434h736l237 -138v-450zM389 649v-465h563v465h-563zM389 1249v-415h563v415h-563z" />
<glyph unicode="C" horiz-adv-x="1361" d="M993 358h205v-231l-237 -137h-539l-238 137v1180l238 137h539l237 -137v-232h-205v185h-604v-1086h604v184z" />
<glyph unicode="D" d="M1260 137l-238 -137h-838v1434h838l238 -138v-1159zM389 1249v-1065h666v1065h-666z" />
<glyph unicode="E" horiz-adv-x="1103" d="M389 645v-461h612v-184h-817v1434h817v-185h-612v-420h490v-184h-490z" />
<glyph unicode="F" horiz-adv-x="1083" d="M389 645v-645h-205v1434h838v-185h-633v-420h510v-184h-510z" />
<glyph unicode="G" horiz-adv-x="1382" d="M758 532v185h440v-590l-237 -137h-539l-238 137v1180l238 137h539l237 -137v-232h-205v185h-604v-1086h604v358h-235z" />
<glyph unicode="H" horiz-adv-x="1464" d="M389 645v-645h-205v1434h205v-605h686v605h205v-1434h-205v645h-686z" />
<glyph unicode="I" horiz-adv-x="573" d="M184 0v1434h205v-1434h-205z" />
<glyph unicode="J" horiz-adv-x="1095" d="M707 174v1260h204v-1307l-237 -137h-395l-238 137v334h205v-287h461z" />
<glyph unicode="K" horiz-adv-x="1357" d="M184 0v1434h205v-758h4l633 758h246l-563 -670l628 -764h-250l-503 616l-195 -231v-385h-205z" />
<glyph unicode="L" horiz-adv-x="980" d="M184 0v1434h205v-1250h531v-184h-736z" />
<glyph unicode="M" horiz-adv-x="1812" d="M1434 0v1167h-4l-422 -1167h-205l-420 1167h-4v-1167h-195v1434h289l430 -1196h4l432 1196h289v-1434h-194z" />
<glyph unicode="N" horiz-adv-x="1505" d="M389 1083v-1083h-205v1434h187l741 -1084h4v1084h205v-1434h-186l-742 1083h-4z" />
<glyph unicode="O" d="M1260 127l-238 -137h-600l-238 137v1180l238 137h600l238 -137v-1180zM389 1260v-1086h666v1086h-666z" />
<glyph unicode="P" horiz-adv-x="1280" d="M184 0v1434h715l238 -138v-608l-238 -137h-510v-551h-205zM389 1249v-514h543v514h-543z" />
<glyph unicode="Q" d="M389 1260v-1086h666v1086h-666zM801 -10h-379l-238 137v1180l238 137h600l238 -137v-1180l-238 -137l231 -400h-227z" />
<glyph unicode="R" horiz-adv-x="1341" d="M698 571h-309v-571h-205v1434h736l237 -138v-587l-237 -138l329 -571h-227zM389 1249v-493h563v493h-563z" />
<glyph unicode="S" horiz-adv-x="1320" d="M184 758v549l238 137h477l238 -137v-211h-205v164h-543v-435h510l238 -137v-561l-238 -137h-498l-237 137v211h205v-164h563v447h-510z" />
<glyph unicode="T" horiz-adv-x="1142" d="M674 1249v-1249h-205v1249h-408v185h1020v-185h-407z" />
<glyph unicode="U" d="M1055 1434h205v-1307l-238 -137h-600l-238 137v1307h205v-1239h666v1239z" />
<glyph unicode="V" horiz-adv-x="1359" d="M1319 1434l-512 -1434h-254l-512 1434h207l430 -1223h4l430 1223h207z" />
<glyph unicode="W" horiz-adv-x="1957" d="M1896 1434l-368 -1434h-244l-303 1149h-4l-303 -1149h-244l-369 1434h199l291 -1172h4l309 1172h230l307 -1172h4l293 1172h198z" />
<glyph unicode="X" horiz-adv-x="1333" d="M61 0l492 731l-471 703h229l355 -533l356 533h229l-473 -703l494 -731h-230l-376 563l-375 -563h-230z" />
<glyph unicode="Y" horiz-adv-x="1251" d="M522 0v633l-481 801h229l353 -611h4l354 611h229l-483 -803v-631h-205z" />
<glyph unicode="Z" horiz-adv-x="1198" d="M143 1249v185h932v-123l-706 -1123v-4h706v-184h-973v123l707 1122v4h-666z" />
<glyph unicode="[" horiz-adv-x="743" d="M348 1352v-1618h273v-144h-437v1905h437v-143h-273z" />
<glyph unicode="\" horiz-adv-x="790" d="M246 1475l483 -1516h-184l-484 1516h185z" />
<glyph unicode="]" horiz-adv-x="743" d="M395 -266v1618h-272v143h436v-1905h-436v144h272z" />
<glyph unicode="^" horiz-adv-x="1232" d="M322 778h-220l410 656h209l409 -656h-219l-293 477h-2z" />
<glyph unicode="_" horiz-adv-x="1253" d="M1294 -238v-172h-1335v172h1335z" />
<glyph unicode="`" horiz-adv-x="1024" d="M645 1470l193 -262h-164l-295 262h266z" />
<glyph unicode="a" horiz-adv-x="1095" d="M322 420v-252h411v252h-411zM360 -10l-237 137v334l237 137h373v248h-508v178h469l238 -137v-897h-53l-146 84l-145 -84h-228z" />
<glyph unicode="b" horiz-adv-x="1218" d="M508 1034h309l238 -137v-770l-238 -137h-309l-146 84l-145 -84h-53v1505h198v-545zM362 856v-688h494v688h-494z" />
<glyph unicode="c" horiz-adv-x="1054" d="M362 846v-668h570v-178h-531l-237 137v750l237 137h531v-178h-570z" />
<glyph unicode="d" horiz-adv-x="1218" d="M401 1034h310l145 -84v545h199v-1505h-150l-49 84l-145 -84h-310l-237 137v770zM856 168v688h-494v-688h494z" />
<glyph unicode="e" horiz-adv-x="1136" d="M973 178v-178h-572l-237 137v760l237 137h334l238 -137v-455h-611v-264h611zM362 856v-235h412v235h-412z" />
<glyph unicode="f" horiz-adv-x="796" d="M82 846v178h188v334l238 137h207v-178h-246v-293h246v-178h-246v-846h-199v846h-188z" />
<glyph unicode="g" horiz-adv-x="1177" d="M362 0l-198 115v184l145 84l-145 84v420l237 137h654v-70l-187 -108l125 -74v-283l-237 -137h-394v-174h455l238 -137v-324l-238 -137h-457l-237 137v127l199 115v-205h534v246h-494zM362 850v-324h433v324h-433z" />
<glyph unicode="h" horiz-adv-x="1218" d="M362 0h-198v1495h198v-545l146 84h309l238 -137v-897h-199v856h-494v-856z" />
<glyph unicode="i" horiz-adv-x="526" d="M362 1024v-1024h-198v1024h198zM154 1276v219h219v-219h-219z" />
<glyph unicode="j" horiz-adv-x="526" d="M154 1276v219h219v-219h-219zM362 1024v-1296l-237 -138h-207v179h246v1255h198z" />
<glyph unicode="k" horiz-adv-x="1087" d="M362 1495v-981h5l421 510h238l-395 -463l456 -561h-243l-332 420l-150 -176v-244h-198v1495h198z" />
<glyph unicode="l" horiz-adv-x="649" d="M401 0l-237 137v1358h198v-1317h246v-178h-207z" />
<glyph unicode="m" horiz-adv-x="1705" d="M1542 897v-897h-199v856h-391v-856h-198v856h-392v-856h-198v1034h149l49 -84l146 84h207l190 -110l193 110h207z" />
<glyph unicode="n" horiz-adv-x="1198" d="M1034 897v-897h-198v856h-474v-856h-198v1034h149l49 -84l146 84h289z" />
<glyph unicode="o" horiz-adv-x="1198" d="M1034 127l-237 -137h-396l-237 137v770l237 137h396l237 -137v-770zM362 856v-688h474v688h-474z" />
<glyph unicode="p" horiz-adv-x="1218" d="M817 -10h-309l-146 84v-484h-198v1444h149l49 -84l146 84h309l238 -137v-770zM362 856v-688h494v688h-494z" />
<glyph unicode="q" horiz-adv-x="1218" d="M711 -10h-310l-237 137v770l237 137h310l145 -84l145 84h54v-1444h-199v484zM856 168v688h-494v-688h494z" />
<glyph unicode="r" horiz-adv-x="796" d="M735 846h-373v-846h-198v1024h149l49 -84l146 84h227v-178z" />
<glyph unicode="s" horiz-adv-x="1097" d="M934 471v-334l-238 -137h-532v178h571v252h-334l-237 137v320l237 137h512v-178h-551v-238h334z" />
<glyph unicode="t" horiz-adv-x="837" d="M82 846v178h188v172l199 115v-287h246v-178h-246v-668h246v-178h-207l-238 137v709h-188z" />
<glyph unicode="u" horiz-adv-x="1198" d="M164 127v897h198v-856h474v856h198v-1034h-149l-49 84l-146 -84h-289z" />
<glyph unicode="v" horiz-adv-x="1079" d="M236 1024l301 -836h4l303 836h194l-379 -1024h-239l-379 1024h195z" />
<glyph unicode="w" horiz-adv-x="1550" d="M997 0l-221 782h-4l-219 -782h-236l-256 1024h185l194 -801h4l226 801h211l225 -801h4l195 801h184l-256 -1024h-236z" />
<glyph unicode="x" horiz-adv-x="1024" d="M41 0l367 522l-355 502h221l238 -352l238 352h221l-357 -502l369 -522h-215l-256 375l-256 -375h-215z" />
<glyph unicode="y" horiz-adv-x="1062" d="M258 -410l178 457l-395 977h199l290 -729h5l288 729h199l-569 -1434h-195z" />
<glyph unicode="z" horiz-adv-x="954" d="M82 135l516 707v4h-496v178h750v-135l-516 -707v-4h516v-178h-770v135z" />
<glyph unicode="{" horiz-adv-x="815" d="M420 461v-727h272v-144h-198l-238 138v743h-174v143h174v744l238 137h198v-143h-272v-727l-137 -80v-4z" />
<glyph unicode="|" horiz-adv-x="675" d="M246 -410v1905h184v-1905h-184z" />
<glyph unicode="}" horiz-adv-x="815" d="M395 -266v727l137 80v4l-137 80v727h-272v143h199l237 -137v-744h174v-143h-174v-743l-237 -138h-199v144h272z" />
<glyph unicode="~" horiz-adv-x="1396" d="M516 553h-194v-168h-179v209l238 137h211l289 -168h194v168h178v-209l-237 -137h-211z" />
<glyph unicode="&#xa1;" horiz-adv-x="716" d="M205 717v307h307v-307h-307zM223 -471l53 946h164l54 -946h-271z" />
<glyph unicode="&#xa2;" horiz-adv-x="1054" d="M743 1024h189v-178h-570v-668h570v-178h-189v-242h-196v242h-146l-237 137v750l237 137h146v242h196v-242z" />
<glyph unicode="&#xa3;" horiz-adv-x="1314" d="M729 748v-152h-285v-412h564v185h204v-232l-237 -137h-735v596h-158v152h158v559l237 137h395l238 -137v-232h-205v185h-461v-512h285z" />
<glyph unicode="&#xa5;" horiz-adv-x="1333" d="M158 621v151h321l-397 662h229l353 -611h4l354 611h229l-399 -662h322v-151h-406v-166h406v-152h-406v-303h-205v303h-405v152h405v166h-405z" />
<glyph unicode="&#xa6;" horiz-adv-x="675" d="M246 -410v824h184v-824h-184zM246 672v823h184v-823h-184z" />
<glyph unicode="&#xa7;" horiz-adv-x="1337" d="M911 334v366h-465v-366h465zM242 688l178 103v4l-178 102v410l237 137h436l238 -137v-211h-205v164h-502v-375h433l237 -137v-402l-178 -102v-4l178 -103v-409l-237 -138h-457l-238 138v211h205v-164h522v375h-432l-237 137v401z" />
<glyph unicode="&#xa8;" horiz-adv-x="1114" d="M225 1219v215h215v-215h-215zM674 1219v215h215v-215h-215z" />
<glyph unicode="&#xa9;" horiz-adv-x="1720" d="M1536 127l-238 -137h-876l-238 137v1180l238 137h876l238 -137v-1180zM348 1300v-1167h1024v1167h-1024zM1059 514h141v-152l-149 -86h-381l-152 86v709l152 86h381l149 -86v-151h-141v108h-400v-622h400v108z" />
<glyph unicode="&#xaa;" horiz-adv-x="1116" d="M322 829v-251h411v251h-411zM360 399l-237 138v333l237 138h373v247h-508v179h469l238 -138v-897h-53l-146 84l-145 -84h-228zM123 0v178h809v-178h-809z" />
<glyph unicode="&#xab;" horiz-adv-x="1392" d="M696 219v-219l-512 410v208l512 410v-219l-374 -293v-2zM1208 219v-219l-512 410v208l512 410v-219l-374 -293v-2z" />
<glyph unicode="&#xad;" horiz-adv-x="897" d="M143 446v179h611v-179h-611z" />
<glyph unicode="&#xae;" horiz-adv-x="1720" d="M1536 127l-238 -137h-876l-238 137v1180l238 137h876l238 -137v-1180zM348 1300v-1167h1024v1167h-1024zM895 621h-217v-338h-141v868h493l152 -86v-356l-140 -82l203 -344h-158zM678 1022v-272h362v272h-362z" />
<glyph unicode="&#xaf;" horiz-adv-x="1226" d="M295 1229v137h637v-137h-637z" />
<glyph unicode="&#xb0;" horiz-adv-x="1034" d="M870 868l-237 -137h-232l-237 137v449l237 137h232l237 -137v-449zM350 1288v-391h334v391h-334z" />
<glyph unicode="&#xb1;" horiz-adv-x="1392" d="M184 752h416v272h193v-272h415v-193h-415v-272h-193v272h-416v193zM1208 193v-193h-1024v193h1024z" />
<glyph unicode="&#xb4;" horiz-adv-x="1024" d="M379 1208l192 262h267l-295 -262h-164z" />
<glyph unicode="&#xb5;" horiz-adv-x="1253" d="M885 0l-49 84l-146 -84h-328v-324h-198v1348h198v-846h474v846h198v-846h178v-178h-327z" />
<glyph unicode="&#xb6;" horiz-adv-x="1402" d="M1020 -410v1665h-199v-1665h-198v920h-263l-237 137v649l237 138h859v-1844h-199z" />
<glyph unicode="&#xb7;" horiz-adv-x="716" d="M205 582v307h307v-307h-307z" />
<glyph unicode="&#xb8;" horiz-adv-x="1183" d="M551 0h111l-46 -76l136 -78v-151l-177 -103h-143v103h203v133h-182z" />
<glyph unicode="&#xba;" horiz-adv-x="1239" d="M1055 537l-238 -138h-395l-238 138v770l238 137h395l238 -137v-770zM383 1266v-688h473v688h-473zM184 0v178h871v-178h-871z" />
<glyph unicode="&#xbb;" horiz-adv-x="1392" d="M696 0v219l375 295v2l-375 293v219l512 -410v-208zM184 0v219l375 295v2l-375 293v219l512 -410v-208z" />
<glyph unicode="&#xbf;" horiz-adv-x="1187" d="M580 223l18 252h164l20 -299l-237 -137h-156v-326h410v185h205v-232l-238 -137h-344l-238 137v420l238 137h158zM834 1024v-307h-308v307h308z" />
<glyph unicode="&#xc0;" horiz-adv-x="1359" d="M807 1434l512 -1434h-201l-121 340h-635l-120 -340h-201l512 1434h254zM678 1231l-250 -707h504l-250 707h-4zM651 1860l193 -263h-164l-295 263h266z" />
<glyph unicode="&#xc1;" horiz-adv-x="1359" d="M807 1434l512 -1434h-201l-121 340h-635l-120 -340h-201l512 1434h254zM678 1231l-250 -707h504l-250 707h-4zM502 1597l192 263h267l-295 -263h-164z" />
<glyph unicode="&#xc2;" horiz-adv-x="1359" d="M807 1434l512 -1434h-201l-121 340h-635l-120 -340h-201l512 1434h254zM678 1231l-250 -707h504l-250 707h-4zM567 1880h226l206 -283h-153l-166 164l-164 -164h-154z" />
<glyph unicode="&#xc3;" horiz-adv-x="1359" d="M807 1434l512 -1434h-201l-121 340h-635l-120 -340h-201l512 1434h254zM678 1231l-250 -707h504l-250 707h-4zM510 1755h-4v-168h-139v193l192 112l291 -168h4v168h139v-192l-192 -113z" />
<glyph unicode="&#xc4;" horiz-adv-x="1359" d="M807 1434l512 -1434h-201l-121 340h-635l-120 -340h-201l512 1434h254zM678 1231l-250 -707h504l-250 707h-4zM348 1608v215h215v-215h-215zM797 1608v215h215v-215h-215z" />
<glyph unicode="&#xc5;" horiz-adv-x="1359" d="M973 1397l-127 -74l473 -1323h-201l-121 340h-635l-120 -340h-201l473 1325l-125 72v346l168 96h248l168 -96v-346zM678 1231l-250 -707h504l-250 707h-4zM543 1706v-272h276v272h-276z" />
<glyph unicode="&#xc6;" horiz-adv-x="1982" d="M1268 645v-461h612v-184h-817v340h-627l-235 -340h-242l1004 1434h917v-185h-612v-420h489v-184h-489zM1059 1231l-494 -707h498v707h-4z" />
<glyph unicode="&#xc7;" horiz-adv-x="1361" d="M993 358h205v-231l-237 -137h-218l-38 -66l135 -78v-151l-176 -103h-144v103h203v133h-182l92 162h-211l-238 137v1180l238 137h539l237 -137v-232h-205v185h-604v-1086h604v184z" />
<glyph unicode="&#xc8;" horiz-adv-x="1103" d="M389 645v-461h612v-184h-817v1434h817v-185h-612v-420h490v-184h-490zM522 1860l193 -263h-164l-295 263h266z" />
<glyph unicode="&#xc9;" horiz-adv-x="1103" d="M389 645v-461h612v-184h-817v1434h817v-185h-612v-420h490v-184h-490zM461 1597l192 263h267l-295 -263h-164z" />
<glyph unicode="&#xca;" horiz-adv-x="1103" d="M389 645v-461h612v-184h-817v1434h817v-185h-612v-420h490v-184h-490zM483 1880h226l206 -283h-153l-166 164l-164 -164h-153z" />
<glyph unicode="&#xcb;" horiz-adv-x="1103" d="M389 645v-461h612v-184h-817v1434h817v-185h-612v-420h490v-184h-490zM266 1608v215h215v-215h-215zM715 1608v215h215v-215h-215z" />
<glyph unicode="&#xcc;" horiz-adv-x="573" d="M184 0v1434h205v-1434h-205zM248 1860l192 -263h-164l-294 263h266z" />
<glyph unicode="&#xcd;" horiz-adv-x="573" d="M184 0v1434h205v-1434h-205zM133 1597l193 263h266l-295 -263h-164z" />
<glyph unicode="&#xce;" horiz-adv-x="573" d="M184 0v1434h205v-1434h-205zM174 1880h225l207 -283h-153l-166 164l-164 -164h-154z" />
<glyph unicode="&#xcf;" horiz-adv-x="573" d="M184 0v1434h205v-1434h-205zM-45 1608v215h215v-215h-215zM403 1608v215h215v-215h-215z" />
<glyph unicode="&#xd0;" d="M41 596v152h143v686h838l238 -138v-1159l-238 -137h-838v596h-143zM389 1249v-501h217v-152h-217v-412h666v1065h-666z" />
<glyph unicode="&#xd1;" horiz-adv-x="1505" d="M389 1083v-1083h-205v1434h187l741 -1084h4v1084h205v-1434h-186l-742 1083h-4zM565 1755h-4v-168h-139v193l192 112l291 -168h4v168h140v-192l-193 -113z" />
<glyph unicode="&#xd2;" d="M1260 127l-238 -137h-600l-238 137v1180l238 137h600l238 -137v-1180zM389 1260v-1086h666v1086h-666zM666 1860l192 -263h-164l-295 263h267z" />
<glyph unicode="&#xd3;" d="M1260 127l-238 -137h-600l-238 137v1180l238 137h600l238 -137v-1180zM389 1260v-1086h666v1086h-666zM569 1597l193 263h266l-295 -263h-164z" />
<glyph unicode="&#xd4;" d="M1260 127l-238 -137h-600l-238 137v1180l238 137h600l238 -137v-1180zM389 1260v-1086h666v1086h-666zM608 1880h226l206 -283h-153l-166 164l-164 -164h-154z" />
<glyph unicode="&#xd5;" d="M1260 127l-238 -137h-600l-238 137v1180l238 137h600l238 -137v-1180zM389 1260v-1086h666v1086h-666zM553 1755h-4v-168h-139v193l192 112l291 -168h4v168h139v-192l-192 -113z" />
<glyph unicode="&#xd6;" d="M1260 127l-238 -137h-600l-238 137v1180l238 137h600l238 -137v-1180zM389 1260v-1086h666v1086h-666zM401 1608v215h215v-215h-215zM850 1608v215h215v-215h-215z" />
<glyph unicode="&#xd7;" horiz-adv-x="1249" d="M258 1014l367 -367l366 367l135 -135l-366 -367l366 -367l-135 -135l-366 367l-367 -367l-135 135l366 367l-366 367z" />
<glyph unicode="&#xd8;" d="M1260 127l-238 -137h-600l-238 137v1180l238 137h600l238 -137v-1180zM389 1260v-953l584 953h-584zM471 174h584v952z" />
<glyph unicode="&#xd9;" d="M1055 1434h205v-1307l-238 -137h-600l-238 137v1307h205v-1239h666v1239zM625 1860l192 -263h-164l-295 263h267z" />
<glyph unicode="&#xda;" d="M1055 1434h205v-1307l-238 -137h-600l-238 137v1307h205v-1239h666v1239zM604 1597l193 263h266l-295 -263h-164z" />
<glyph unicode="&#xdb;" d="M1055 1434h205v-1307l-238 -137h-600l-238 137v1307h205v-1239h666v1239zM608 1880h226l206 -283h-153l-166 164l-164 -164h-154z" />
<glyph unicode="&#xdc;" d="M1055 1434h205v-1307l-238 -137h-600l-238 137v1307h205v-1239h666v1239zM389 1608v215h215v-215h-215zM838 1608v215h215v-215h-215z" />
<glyph unicode="&#xdd;" horiz-adv-x="1251" d="M522 0v633l-481 801h229l353 -611h4l354 611h229l-483 -803v-631h-205zM522 1597l193 263h266l-295 -263h-164z" />
<glyph unicode="&#xde;" horiz-adv-x="1300" d="M184 0v1495h205v-293h510l238 -137v-608l-238 -138h-510v-319h-205zM389 1018v-514h543v514h-543z" />
<glyph unicode="&#xdf;" horiz-adv-x="1361" d="M61 649v185h185v462l237 138h416l238 -138v-450l-152 -88l213 -121v-500l-237 -137h-361v184h393v465h-393v185h332v415h-481v-1659h-205v1059h-185z" />
<glyph unicode="&#xe0;" horiz-adv-x="1095" d="M322 420v-252h411v252h-411zM360 -10l-237 137v334l237 137h373v248h-508v178h469l238 -137v-897h-53l-146 84l-145 -84h-228zM543 1470l192 -262h-164l-295 262h267z" />
<glyph unicode="&#xe1;" horiz-adv-x="1095" d="M322 420v-252h411v252h-411zM360 -10l-237 137v334l237 137h373v248h-508v178h469l238 -137v-897h-53l-146 84l-145 -84h-228zM379 1208l192 262h267l-295 -262h-164z" />
<glyph unicode="&#xe2;" horiz-adv-x="1095" d="M322 420v-252h411v252h-411zM360 -10l-237 137v334l237 137h373v248h-508v178h469l238 -137v-897h-53l-146 84l-145 -84h-228zM430 1491h225l207 -283h-153l-166 164l-164 -164h-154z" />
<glyph unicode="&#xe3;" horiz-adv-x="1095" d="M322 420v-252h411v252h-411zM360 -10l-237 137v334l237 137h373v248h-508v178h469l238 -137v-897h-53l-146 84l-145 -84h-228zM369 1366h-4v-168h-140v193l193 112l291 -168h4v168h139v-192l-193 -113z" />
<glyph unicode="&#xe4;" horiz-adv-x="1095" d="M322 420v-252h411v252h-411zM360 -10l-237 137v334l237 137h373v248h-508v178h469l238 -137v-897h-53l-146 84l-145 -84h-228zM225 1219v215h215v-215h-215zM674 1219v215h215v-215h-215z" />
<glyph unicode="&#xe5;" horiz-adv-x="1095" d="M322 420v-252h411v252h-411zM360 -10l-237 137v334l237 137h373v248h-508v178h469l238 -137v-897h-53l-146 84l-145 -84h-228zM834 1264l-168 -97h-248l-168 97v346l168 96h248l168 -96v-346zM403 1573v-273h277v273h-277z" />
<glyph unicode="&#xe6;" horiz-adv-x="1705" d="M1542 178v-178h-571l-185 106l-198 -116h-228l-237 137v334l237 137h373v248h-508v178h469l129 -76l148 86h334l237 -137v-455h-610v-264h610zM322 420v-252h411v252h-411zM932 856v-235h411v235h-411z" />
<glyph unicode="&#xe7;" horiz-adv-x="1054" d="M551 0h-150l-237 137v750l237 137h531v-178h-570v-668h570v-178h-270l-46 -76l136 -78v-151l-177 -103h-143v103h203v133h-182z" />
<glyph unicode="&#xe8;" horiz-adv-x="1136" d="M973 178v-178h-572l-237 137v760l237 137h334l238 -137v-455h-611v-264h611zM362 856v-235h412v235h-412zM584 1470l192 -262h-164l-295 262h267z" />
<glyph unicode="&#xe9;" horiz-adv-x="1136" d="M973 178v-178h-572l-237 137v760l237 137h334l238 -137v-455h-611v-264h611zM362 856v-235h412v235h-412zM379 1208l192 262h267l-295 -262h-164z" />
<glyph unicode="&#xea;" horiz-adv-x="1136" d="M973 178v-178h-572l-237 137v760l237 137h334l238 -137v-455h-611v-264h611zM362 856v-235h412v235h-412zM465 1491h225l207 -283h-154l-165 164l-164 -164h-154z" />
<glyph unicode="&#xeb;" horiz-adv-x="1136" d="M973 178v-178h-572l-237 137v760l237 137h334l238 -137v-455h-611v-264h611zM362 856v-235h412v235h-412zM231 1219v215h215v-215h-215zM680 1219v215h215v-215h-215z" />
<glyph unicode="&#xec;" horiz-adv-x="526" d="M362 1024v-1024h-198v1024h198zM211 1470l192 -262h-163l-295 262h266z" />
<glyph unicode="&#xed;" horiz-adv-x="526" d="M362 1024v-1024h-198v1024h198zM123 1208l192 262h267l-295 -262h-164z" />
<glyph unicode="&#xee;" horiz-adv-x="526" d="M362 1024v-1024h-198v1024h198zM150 1491h225l207 -283h-154l-166 164l-164 -164h-153z" />
<glyph unicode="&#xef;" horiz-adv-x="526" d="M362 1024v-1024h-198v1024h198zM-68 1219v215h215v-215h-215zM381 1219v215h215v-215h-215z" />
<glyph unicode="&#xf0;" horiz-adv-x="1300" d="M696 997v152h217v111h-489v184h457l237 -137v-158h144v-152h-144v-870l-237 -137h-457l-238 137v616l238 138h344l145 -84v200h-217zM913 174v522h-522v-522h522z" />
<glyph unicode="&#xf1;" horiz-adv-x="1198" d="M1034 897v-897h-198v856h-474v-856h-198v1034h149l49 -84l146 84h289zM428 1366h-4v-168h-139v193l192 112l291 -168h4v168h139v-192l-192 -113z" />
<glyph unicode="&#xf2;" horiz-adv-x="1198" d="M1034 127l-237 -137h-396l-237 137v770l237 137h396l237 -137v-770zM362 856v-688h474v688h-474zM598 1470l193 -262h-164l-295 262h266z" />
<glyph unicode="&#xf3;" horiz-adv-x="1198" d="M1034 127l-237 -137h-396l-237 137v770l237 137h396l237 -137v-770zM362 856v-688h474v688h-474zM446 1208l193 262h266l-295 -262h-164z" />
<glyph unicode="&#xf4;" horiz-adv-x="1198" d="M1034 127l-237 -137h-396l-237 137v770l237 137h396l237 -137v-770zM362 856v-688h474v688h-474zM492 1491h225l207 -283h-154l-166 164l-164 -164h-153z" />
<glyph unicode="&#xf5;" horiz-adv-x="1198" d="M1034 127l-237 -137h-396l-237 137v770l237 137h396l237 -137v-770zM362 856v-688h474v688h-474zM436 1366h-4v-168h-139v193l192 112l291 -168h4v168h140v-192l-193 -113z" />
<glyph unicode="&#xf6;" horiz-adv-x="1198" d="M1034 127l-237 -137h-396l-237 137v770l237 137h396l237 -137v-770zM362 856v-688h474v688h-474zM268 1219v215h215v-215h-215zM717 1219v215h215v-215h-215z" />
<glyph unicode="&#xf7;" horiz-adv-x="1228" d="M1126 608v-192h-1024v192h1024zM481 -20v266h267v-266h-267zM481 778v266h267v-266h-267z" />
<glyph unicode="&#xf8;" horiz-adv-x="1198" d="M1034 127l-237 -137h-396l-237 137v770l237 137h396l237 -137v-770zM362 856v-569l392 569h-392zM444 168h392v569z" />
<glyph unicode="&#xf9;" horiz-adv-x="1198" d="M164 127v897h198v-856h474v856h198v-1034h-149l-49 84l-146 -84h-289zM563 1470l193 -262h-164l-295 262h266z" />
<glyph unicode="&#xfa;" horiz-adv-x="1198" d="M164 127v897h198v-856h474v856h198v-1034h-149l-49 84l-146 -84h-289zM481 1208l193 262h266l-295 -262h-164z" />
<glyph unicode="&#xfb;" horiz-adv-x="1198" d="M164 127v897h198v-856h474v856h198v-1034h-149l-49 84l-146 -84h-289zM487 1491h226l207 -283h-154l-166 164l-164 -164h-153z" />
<glyph unicode="&#xfc;" horiz-adv-x="1198" d="M164 127v897h198v-856h474v856h198v-1034h-149l-49 84l-146 -84h-289zM266 1219v215h215v-215h-215zM715 1219v215h215v-215h-215z" />
<glyph unicode="&#xfd;" horiz-adv-x="1062" d="M258 -410l178 457l-395 977h199l290 -729h5l288 729h199l-569 -1434h-195zM399 1208l193 262h266l-295 -262h-164z" />
<glyph unicode="&#xfe;" horiz-adv-x="1218" d="M164 1495h198v-545l146 84h309l238 -137v-770l-238 -137h-309l-146 84v-484h-198v1905zM362 856v-688h494v688h-494z" />
<glyph unicode="&#xff;" horiz-adv-x="1062" d="M258 -410l178 457l-395 977h199l290 -729h5l288 729h199l-569 -1434h-195zM201 1219v215h215v-215h-215zM649 1219v215h215v-215h-215z" />
<glyph unicode="&#x152;" horiz-adv-x="1974" d="M1260 645v-461h612v-184h-1450l-238 137v1159l238 138h1450v-185h-612v-420h489v-184h-489zM389 1249v-1065h666v1065h-666z" />
<glyph unicode="&#x153;" horiz-adv-x="1808" d="M1645 178v-178h-572l-129 74l-147 -84h-396l-237 137v770l237 137h396l137 -80l139 80h334l238 -137v-455h-611v-264h611zM362 856v-688h474v688h-474zM1034 856v-235h412v235h-412z" />
<glyph unicode="&#x178;" horiz-adv-x="1251" d="M522 0v633l-481 801h229l353 -611h4l354 611h229l-483 -803v-631h-205zM293 1608v215h215v-215h-215zM741 1608v215h215v-215h-215z" />
<glyph unicode="&#x2c6;" horiz-adv-x="1087" d="M430 1491h225l207 -283h-153l-166 164l-164 -164h-154z" />
<glyph unicode="&#x2dc;" horiz-adv-x="1036" d="M348 1366h-4v-168h-139v193l192 112l291 -168h4v168h139v-192l-192 -113z" />
<glyph unicode="&#x2000;" horiz-adv-x="946" />
<glyph unicode="&#x2001;" horiz-adv-x="1892" />
<glyph unicode="&#x2002;" horiz-adv-x="946" />
<glyph unicode="&#x2003;" horiz-adv-x="1892" />
<glyph unicode="&#x2004;" horiz-adv-x="630" />
<glyph unicode="&#x2005;" horiz-adv-x="473" />
<glyph unicode="&#x2006;" horiz-adv-x="315" />
<glyph unicode="&#x2007;" horiz-adv-x="315" />
<glyph unicode="&#x2008;" horiz-adv-x="236" />
<glyph unicode="&#x2009;" horiz-adv-x="378" />
<glyph unicode="&#x200a;" horiz-adv-x="105" />
<glyph unicode="&#x2010;" horiz-adv-x="897" d="M143 446v179h611v-179h-611z" />
<glyph unicode="&#x2011;" horiz-adv-x="897" d="M143 446v179h611v-179h-611z" />
<glyph unicode="&#x2012;" horiz-adv-x="897" d="M143 446v179h611v-179h-611z" />
<glyph unicode="&#x2013;" horiz-adv-x="1425" d="M143 446v179h1139v-179h-1139z" />
<glyph unicode="&#x2014;" horiz-adv-x="1994" d="M143 446v179h1708v-179h-1708z" />
<glyph unicode="&#x2018;" horiz-adv-x="675" d="M492 1495v-717h-308v86l222 631h86z" />
<glyph unicode="&#x2019;" horiz-adv-x="675" d="M184 778v717h308v-86l-222 -631h-86z" />
<glyph unicode="&#x201a;" horiz-adv-x="716" d="M205 -410v717h307v-86l-221 -631h-86z" />
<glyph unicode="&#x201c;" horiz-adv-x="1167" d="M983 1495v-717h-307v86l221 631h86zM492 1495v-717h-308v86l222 631h86z" />
<glyph unicode="&#x201d;" horiz-adv-x="1167" d="M184 778v717h308v-86l-222 -631h-86zM676 778v717h307v-86l-221 -631h-86z" />
<glyph unicode="&#x201e;" horiz-adv-x="1208" d="M205 -410v717h307v-86l-221 -631h-86zM696 -410v717h308v-86l-222 -631h-86z" />
<glyph unicode="&#x2022;" horiz-adv-x="1187" d="M983 459l-238 -137h-303l-237 137v504l237 137h303l238 -137v-504z" />
<glyph unicode="&#x2026;" horiz-adv-x="1986" d="M205 0v307h307v-307h-307zM840 0v307h307v-307h-307zM1475 0v307h307v-307h-307z" />
<glyph unicode="&#x202f;" horiz-adv-x="378" />
<glyph unicode="&#x2039;" horiz-adv-x="880" d="M696 219v-219l-512 410v208l512 410v-219l-374 -293v-2z" />
<glyph unicode="&#x203a;" horiz-adv-x="880" d="M184 0v219l375 295v2l-375 293v219l512 -410v-208z" />
<glyph unicode="&#x205f;" horiz-adv-x="473" />
<glyph unicode="&#x20ac;" horiz-adv-x="1380" d="M938 944l-88 -151h-426v-152h340l-88 -152h-252v-315h588v184h205v-231l-238 -137h-522l-238 137v362h-158v152h158v152h-158v151h158v363l238 137h522l238 -137v-232h-205v185h-588v-316h514z" />
<glyph unicode="&#x2122;" horiz-adv-x="1730" d="M1411 696v498h-4l-172 -498h-125l-168 498h-4v-498h-135v738h174l197 -543h4l194 543h174v-738h-135zM481 1305v-609h-139v609h-199v129h535v-129h-197z" />
<glyph unicode="&#x25fc;" horiz-adv-x="1024" d="M0 1024h1024v-1024h-1024v1024z" />
<glyph unicode="&#xfb01;" horiz-adv-x="1302" d="M82 846v178h188v334l238 137h641v-178h-680v-293h287v-178h-287v-846h-199v846h-188zM1139 1024v-1024h-199v1024h199z" />
<glyph unicode="&#xfb02;" horiz-adv-x="1445" d="M1198 0l-237 137v1180h-492v-293h307v-178h-307v-846h-199v846h-188v178h188v334l238 137h651v-1317h246v-178h-207z" />
<glyph unicode="&#xfb03;" horiz-adv-x="2119" d="M469 846v-846h-199v846h-188v178h188v334l238 137h289v-178h-328v-293h557v334l238 137h702v-178h-741v-293h327v-178h-327v-846h-199v846h-557zM1956 1024v-1024h-199v1024h199z" />
<glyph unicode="&#xfb04;" horiz-adv-x="2242" d="M82 846v178h188v334l238 137h350v-178h-389v-293h598v334l238 137h651v-1317h246v-178h-207l-238 137v1180h-491v-293h307v-178h-307v-846h-199v846h-598v-846h-199v846h-188z" />
</font>
</defs>
</svg>
