<?xml version="1.0" encoding="UTF-8"?>
<svg version="1.1" viewBox="0 0 736.98 850.6" xmlns="http://www.w3.org/2000/svg" xmlns:xlink="http://www.w3.org/1999/xlink">
 <defs>
  <linearGradient id="a">
   <stop stop-color="#ffe680" offset="0"/>
   <stop stop-color="#fffeba" offset="1"/>
  </linearGradient>
  <linearGradient id="ay">
   <stop stop-color="#ffdf7d" offset="0"/>
   <stop stop-color="#fa9f00" offset="1"/>
  </linearGradient>
  <linearGradient id="ax">
   <stop stop-color="#bff8ff" offset="0"/>
   <stop stop-color="#fff" offset="1"/>
  </linearGradient>
  <linearGradient id="aw">
   <stop stop-color="#598cff" offset="0"/>
   <stop stop-color="#59fbff" offset="1"/>
  </linearGradient>
  <linearGradient id="av">
   <stop stop-color="#f2f2f2" offset="0"/>
   <stop stop-color="#c1dde9" offset="1"/>
  </linearGradient>
  <linearGradient id="au">
   <stop stop-color="#ff9fd3" offset="0"/>
   <stop stop-color="#ffdefc" offset="1"/>
  </linearGradient>
  <linearGradient id="at">
   <stop stop-color="#9299e2" offset="0"/>
   <stop stop-color="#b9dcdf" offset="1"/>
  </linearGradient>
  <linearGradient id="as">
   <stop stop-color="#b9dcdf" offset="0"/>
   <stop stop-color="#ccfbff" offset="1"/>
  </linearGradient>
  <linearGradient id="bd" x1="352.58" x2="373.95" y1="462.6" y2="498.94" gradientUnits="userSpaceOnUse" xlink:href="#at"/>
  <linearGradient id="be" x1="257.68" x2="239.29" y1="575.76" y2="582" gradientUnits="userSpaceOnUse" xlink:href="#at"/>
  <linearGradient id="bg" x1="398.52" x2="398.7" y1="515.16" y2="451.02" gradientUnits="userSpaceOnUse" xlink:href="#au"/>
  <linearGradient id="bj" x1="386.42" x2="344.19" y1="868.59" y2="857.48" gradientUnits="userSpaceOnUse" xlink:href="#av"/>
  <linearGradient id="cb" x1="359.86" x2="351.25" y1="496.65" y2="477.45" gradientUnits="userSpaceOnUse" xlink:href="#au"/>
  <radialGradient id="ch" cx="379.7" cy="652.75" r="133.01" gradientTransform="matrix(.51268 .22176 -.414 .95713 473.84 -40.19)" gradientUnits="userSpaceOnUse">
   <stop stop-color="#ffe6f3" offset="0"/>
   <stop stop-color="#ff9fd3" offset="1"/>
  </radialGradient>
  <linearGradient id="cc" x1="273.02" x2="245.87" y1="794.88" y2="773.48" gradientUnits="userSpaceOnUse" xlink:href="#au"/>
  <radialGradient id="ci" cx="367" cy="684.86" r="157.98" gradientTransform="matrix(.53361 .30525 -.3862 .67511 445.84 110.46)" gradientUnits="userSpaceOnUse">
   <stop stop-color="#feffbe" offset="0"/>
   <stop stop-color="#ffdf7d" offset="1"/>
  </radialGradient>
  <linearGradient id="cd" x1="399.64" x2="377.88" y1="812.18" y2="790.76" gradientUnits="userSpaceOnUse">
   <stop stop-color="#ff9fd3" offset="0"/>
   <stop stop-color="#ff2ae8" offset="1"/>
  </linearGradient>
  <linearGradient id="ce" x1="427.67" x2="394.47" y1="807.67" y2="776.95" gradientUnits="userSpaceOnUse" xlink:href="#ay"/>
  <linearGradient id="cf" x1="234.61" x2="255.6" y1="593.5" y2="582.08" gradientUnits="userSpaceOnUse" xlink:href="#ay"/>
  <linearGradient id="az" x1="564.36" x2="537.34" y1="464.58" y2="422.08" gradientUnits="userSpaceOnUse" xlink:href="#a"/>
  <linearGradient id="ba" x1="237.46" x2="203.82" y1="614.78" y2="572.64" gradientUnits="userSpaceOnUse" xlink:href="#a"/>
  <linearGradient id="bb" x1="157.68" x2="106.34" y1="588.3" y2="609.37" gradientUnits="userSpaceOnUse" xlink:href="#a"/>
  <linearGradient id="bc" x1="101.25" x2="87.461" y1="676.89" y2="649.03" gradientUnits="userSpaceOnUse" xlink:href="#a"/>
  <linearGradient id="bf" x1="140.92" x2="132.86" y1="707.48" y2="677.48" gradientUnits="userSpaceOnUse">
   <stop stop-color="#ffe680" offset="0"/>
   <stop stop-color="#ffac31" offset="1"/>
  </linearGradient>
  <linearGradient id="bh" x1="593.65" x2="564.65" y1="407.94" y2="394.3" gradientUnits="userSpaceOnUse" xlink:href="#a"/>
  <linearGradient id="bi" x1="641.61" x2="623.65" y1="418.59" y2="394.35" gradientUnits="userSpaceOnUse" xlink:href="#a"/>
  <linearGradient id="bk" x1="681.64" x2="674.73" y1="442.57" y2="423.38" gradientUnits="userSpaceOnUse" xlink:href="#a"/>
  <linearGradient id="bl" x1="521.43" x2="514.63" y1="454.33" y2="429.33" gradientUnits="userSpaceOnUse" xlink:href="#as"/>
  <radialGradient id="cg" cx="232.37" cy="427.81" r="183.32" gradientTransform="matrix(.63371 -.0081203 .0036406 .28411 83.97 225.05)" gradientUnits="userSpaceOnUse" xlink:href="#at"/>
  <linearGradient id="bm" x1="467.45" x2="403.38" y1="328.85" y2="266.48" gradientUnits="userSpaceOnUse">
   <stop stop-color="#ffc3c3" offset="0"/>
   <stop stop-color="#ff6060" offset="1"/>
  </linearGradient>
  <linearGradient id="bn" x1="152.39" x2="158.59" y1="309.97" y2="235.21" gradientUnits="userSpaceOnUse" xlink:href="#as"/>
  <linearGradient id="bo" x1="354.76" x2="346.74" y1="453.15" y2="434.04" gradientUnits="userSpaceOnUse">
   <stop stop-color="#a00" offset="0"/>
   <stop stop-color="#700000" offset="1"/>
  </linearGradient>
  <linearGradient id="bp" x1="355.12" x2="342.97" y1="450.29" y2="441" gradientUnits="userSpaceOnUse">
   <stop stop-color="#ff2a2a" offset="0"/>
   <stop stop-color="#ffa1a1" offset="1"/>
  </linearGradient>
  <linearGradient id="bq" x1="189.54" x2="201.78" y1="309.48" y2="331.63" gradientUnits="userSpaceOnUse" xlink:href="#aw"/>
  <linearGradient id="br" x1="294.93" x2="312.17" y1="313.76" y2="342.33" gradientUnits="userSpaceOnUse" xlink:href="#aw"/>
  <linearGradient id="bs" x1="169.76" x2="144.82" y1="409.94" y2="391.98" gradientUnits="userSpaceOnUse" xlink:href="#as"/>
  <linearGradient id="bt" x1="355.36" x2="342.71" y1="354.06" y2="333.35" gradientUnits="userSpaceOnUse" xlink:href="#as"/>
  <linearGradient id="bu" x1="247.85" x2="263.99" y1="200.74" y2="235.08" gradientUnits="userSpaceOnUse">
   <stop stop-color="#dff9ff" offset="0"/>
   <stop stop-color="#dff9ff" stop-opacity="0" offset="1"/>
  </linearGradient>
  <linearGradient id="bv" x1="457.89" x2="446.54" y1="228.27" y2="260.59" gradientTransform="translate(-.25254 .50508)" gradientUnits="userSpaceOnUse" xlink:href="#av"/>
  <linearGradient id="bw" x1="304.83" x2="354.86" y1="458.2" y2="466.41" gradientUnits="userSpaceOnUse" xlink:href="#at"/>
  <linearGradient id="bx" x1="146.34" x2="141.01" y1="534.21" y2="543.59" gradientUnits="userSpaceOnUse" xlink:href="#at"/>
  <linearGradient id="by" x1="125.98" x2="127.92" y1="520.65" y2="499.49" gradientTransform="matrix(.93149 0 0 .94396 9.0271 28.117)" gradientUnits="userSpaceOnUse" xlink:href="#as"/>
  <linearGradient id="bz" x1="198.9" x2="189.95" y1="271.11" y2="281.34" gradientUnits="userSpaceOnUse" xlink:href="#ax"/>
  <linearGradient id="ca" x1="315.66" x2="302.46" y1="260.76" y2="280.84" gradientUnits="userSpaceOnUse" xlink:href="#ax"/>
 </defs>
 <g transform="translate(-6.9484 -108.79)">
  <g transform="matrix(1.0617 0 0 1.0617 -23.181 -32.976)">
   <path d="m580.62 340.62c-9.874 0.15802-20.274 3.274-22.531 9.4375-3.283 8.9651 3.8188 27.394 3.1875 34.844-0.63135 7.4499-11.125 23.75-11.125 23.75s-10.477-4.2927-18.938-3.1562c-8.46 1.1364-18.322 4.6693-20.469 9.5938-2.1466 4.9245-1.625 6.8125-1.625 6.8125l-11 0.875s-11.733-10.992-22.719-11.75c0 0-17.928 11.632-31.312 17.188s-37.125 13.75-37.125 13.75-5.5687-3.264-14.281-1.875c-8.7126 1.389-12.375 8.1875-12.375 8.1875l-1.25-17.031-74.375 7.8125 4.2812 35.625s-4.4129-3.0401-9.9688-2.1562-17.176 7.6942-18.312 13.25-1 11.875-1 11.875-16.681 16.028-26.656 22.594c-9.9752 6.566-26.514 18.184-31.312 21.594-4.7982 3.4093-4.1562 19.969-4.1562 19.969s-12.235-4.1593-19.938-0.75c-7.7024 3.4093-16.562 17.781-16.562 17.781s-11.492 4.8079-21.594 2.1562c-10.102-2.6516-22.337-15.276-35.469-15.781-13.132-0.50508-35.5 3.5212-38.656 20.062s6.2038 22.486 13.906 27.031c7.7024 4.5457 17.165 7.9446 19.438 10.344 2.2728 2.3991 6.0625 8.4688 6.0625 8.4688s-14.014 9.7165-37.5 16.156c-23.486 6.4397-33.834 5.8133-41.031 8.8438-7.1973 3.0304-16.165 8.0796-15.281 18.812 0.88388 10.733 11.377 30.702 23.625 32.344 12.248 1.6415 54.781-14.656 54.781-14.656s-9.8372 11.104-19.812 16.281c-9.9753 5.177-16.156 8.1992-16.156 13.25s3.129 22.248 18.281 25.531 53.812-23.75 53.812-23.75-3.9266 7.6992-1.9062 12.75c2.0203 5.0508 5.197 8.3328 16.688 6.3125 11.49-2.0203 26.745-18.557 33.438-28.406 6.6923-9.849 16.312-33.969 16.312-33.969s8.9467-6.2971 14.25-17.156c5.3033-10.859 5.8125-16.562 5.8125-16.562s6.7043-0.11564 11.25-4.1562c4.5457-4.0406 5.6562-7.4375 5.6562-7.4375 4.7982 5.3033 12.312 6.1562 12.312 6.1562s-4.8125 28.027-1.0625 52.312c3.75 24.286 12.844 33.938 12.844 33.938s-3.5625 27.138-19.812 46.781-27.156 30.188-27.156 30.188-9.8122-5.1701-16.062-0.6875c-6.2503 4.4826-16.039 18.437-15.281 24.75 0.75762 6.3135 3.4062 8.125 3.4062 8.125s-1.8133 1.8279-4.8438 3.4062c-3.0305 1.5784-20.465 5.1865-27.031 11.5-6.566 6.3134-12.383 15.844-11.625 28.281 0.75762 12.438 5.5013 27.482 5.375 29.25s-4.0441 3.1482-5.875 7.0625-2.5904 8.6372 0.1875 10.531c2.7779 1.894 5.3101 2.7308 8.6562 1.5312s13.83-6.8826 18.312-6.125c4.4826 0.75762 9.8455 4.2302 19 3.0938 7.6632-0.9513 19.803-1.7664 32.062-3.5312 32.181 6.3808 75.507 10.281 123.19 10.281 99.305 0 179.81-16.954 179.81-37.875 0-9.8033-17.683-18.742-46.688-25.469 0.42977-0.35273 0.80832-0.71724 1.0938-1.125 2.6516-3.7881 3.2308-7.3209 2.0312-9.5938-1.1996-2.2728-4.1875-3.1562-4.1875-3.1562s-0.18004-21.91-16.469-27.719c-16.289-5.8084-21.781-6.875-21.781-6.875s0.30853-9.0251-2.4062-12.75c-2.7148-3.7249-5.488-4.3469-6.6875-4.0312-1.1996 0.31568-6.75 3.2188-6.75 3.2188s5.4857-8.6667 13.125-26.281c7.6393-17.615 26.188-70.062 26.188-70.062s15.681-24.264 22.5-53.938-4.7946-66.163-15.906-81.062-28.312-43.188-28.312-43.188 16.432-11.986 29.438-16.531c13.006-4.5457 28.531-9.0938 28.531-9.0938l5.3125-13.375 10.969-2.2812s7.3363 12.129 23.625 11.75 26-14.156 26-14.156 14.011 6.4438 25.375 5.8125c11.364-0.63135 21.469-1.875 21.469-1.875s44.47 14.119 59.875 11.594c15.405-2.5254 22.348-18.046 21.969-22.844-0.3788-4.7982-3.3057-9.861-7.0938-11.25s-12.615-1.1136-19.812-2.25c-7.1973-1.1364-13.5-3.0312-13.5-3.0312s13.511 0.37802 24.875-3.0312c11.364-3.4093 25.512-7.7148 30.562-17.438s4.286-23.612-2.4062-28.031c-6.6923-4.4194-13.644-4.9291-17.938-2.6562-4.2932 2.2728-19.833 6.4472-30.188 8.5938-10.354 2.1466-15.531 2.0312-15.531 2.0312s20.85-7.5941 29.562-13.781c8.7126-6.1872 21.091-15.267 21.344-29.156 0.25254-13.89-1.3917-32.701-15.281-34.469-13.89-1.7678-18.187 4.5341-24.5 10.469-6.3135 5.9346-28.298 21.979-39.031 27.156s-18.062 8.3125-18.062 8.3125 3.4273-7.9478 4.4375-22.469c1.0102-14.521-5.0446-24.369-16.156-28.031-3.4724-1.1443-7.8556-1.6656-12.344-1.5938z" stroke="#000" stroke-linejoin="round" stroke-width="5"/>
   <path d="m464.47 721.47s-11.973 15.348-25.188 24.812c-13.214 9.4643-30.531 13.406-30.531 13.406l-19.688 22.656c6.582 1.5002 11.941 5.3702 14.531 11.25 5.2701 11.964-2.8647 27.776-18.156 35.344-9.7628 4.8314-20.068 5.1193-27.625 1.5938 0.0407 0.57819 0.0471 1.1937 0.0312 1.8438-0.17857 7.3214-8.75 11.594-8.75 11.594s21.263 5.3661 47.156 3.9375 43.022-13.223 46.594-20.188c3.5714-6.9643 1.0759-20.888-3.0312-21.781s-21.768 14.272-44.625 20.344c0 0 27.138-13.839 33.031-18.75 0.53012-0.78536 1.0766-1.6351 1.625-2.5312-7.2248-1.2416-13.166-5.2073-15.938-11.5-5.2701-11.964 2.8647-27.807 18.156-35.375 5.2565-2.6013 10.687-3.8872 15.75-3.9688 1.615-0.026 3.1941 0.0967 4.7188 0.3125 6.8603-17.952 11.938-33 11.938-33z" fill="url(#ce)"/>
   <path d="m283.21 495.4c-0.26785-7.9464 0.71429-11.607 9.2857-16.071 8.5714-4.4643 13.393-3.9286 16.607-1.4286 3.2143 2.5 22.679 27.857 36.071 32.321 13.393 4.4643 34.107 7.3214 43.036-3.5714 8.9286-10.893 13.036-31.607 10-40-3.0357-8.3929-13.214-18.75-13.214-18.75s4.4643-4.6429 10-4.8214c5.5357-0.17857 13.008 0.88279 16.786 6.4286 8.3928 12.321 11.071 42.679 6.25 57.143-4.8214 14.464-24.107 33.393-46.429 36.071-22.321 2.6786-39.464-1.25-54.464-18.214s-24.107-30.536-26.964-30.893-6.9643 1.7857-6.9643 1.7857z" fill="#ff9fd3"/>
   <path d="m476.25 414.5s-2.6717 1.4167-3.6562 1.9375c2.449 4.8879 3.8438 10.491 3.8438 16.469 0 18.837-13.845 34.094-30.906 34.094-14.253 0-26.253-10.637-29.812-25.125-3.1869 1.0559-5.375 1.75-5.375 1.75s12.161 19.281 12.875 44.281c0.71428 25-10.911 41.42-37.875 53.562-26.964 12.143-51.942 0.71429-62.656-7.5-10.234-7.8464-28.436-34.275-34.094-36.781 3.1424 5.34 4.9688 11.716 4.9688 18.562 0 18.837-13.813 34.125-30.875 34.125-10.424 0-19.62-5.7321-25.219-14.469-4.0547 2.9016-7.5759 5.3814-8.9062 6.3438 3.817 0.49107 7.5054 1.9029 28.156 28.344 19.107 24.464 17.911 52.723 16.125 59.062 4.5928-5.6183 11.382-13.129 20.875-21.594-9.6596-5.7724-16.219-17.059-16.219-30.031 0-18.837 13.845-34.094 30.906-34.094 16.148 0 23.472 9.6564 20.469 37.625-0.56866 0.41038-1.509 1.1608-2.6875 2.0938 1.5785-1.0056 3.1915-1.9925 4.8438-3-57.579 41.921-59.616 62.562-69.062 61.656 0 0-1.6027 9.0606-0.53125 39.125 1.476 41.416 19.188 50.438 19.188 50.438l-6.0625-2.125s-0.42601 8.8922-7.625 26.688c15.849 1.2236 27.898 14.005 27.344 29.594-0.58318 16.398-14.876 29.688-31.938 29.688-12.122 0-22.38-6.7036-27.094-16.469-4.0057 4.0856-6.8438 6.8125-6.8438 6.8125 17.678 7.5761 28.125 17.875 28.125 17.875s-35.188-19.201-44.562-17.594c-9.375 1.6071-16.089 16.688-16 24.188s14.567 19.107 71.531 25c56.964 5.8929 80.536-12.317 85-18.031 1.5845-2.0282 3.7448-5.7563 0.66964-11.728-7.3779 2.5829-12.822 3.4506-25.42 4.9152-7.3249 0.85158-13.184 0.17622-18.469-1.4062 0 0 6.5524-0.36922 14.5-1.125-7.1736-5.4257-11.623-13.954-11.281-23.562 0.58318-16.398 14.876-29.688 31.938-29.688 13.898 0 25.361 8.8042 28.812 20.938l28.469-33.906c-29.643 8.0357-40.879 5.067-44.719 3.2812 18.839 0.44643 39.795-1.6518 71.938-15.938 5.9402-2.6401 11.802-6.7905 17.406-12.031-10.639-9.0634-17.562-23.628-17.562-40.094 0-27.497 19.251-49.781 43-49.781 6.7277 0 13.111 1.7796 18.781 4.9688 0.6801-4.0622 1.1091-7.9695 1.2188-11.625 1.0714-35.714-10.348-53.933-28.562-79.469s-25.531-47.844-25.531-47.844l10 16.969s2.1736-1.4529 5.625-3.5625c-6.411-6.2542-10.469-15.381-10.469-25.562 0-18.837 13.845-34.094 30.906-34.094s30.906 15.257 30.906 34.094c0 1.1459-0.0562 2.2892-0.15625 3.4062 1.2192-1.6992 12.234-18.173 4.9688-51.625-7.6786-35.357-33.219-38.031-33.219-38.031zm-65.344 128.19c26.553 0 48.062 25.986 48.062 58.062s-21.509 58.094-48.062 58.094-48.094-26.018-48.094-58.094 21.541-58.062 48.094-58.062zm-90.562 106.31c23.749 0 43 22.284 43 49.781s-19.251 49.781-43 49.781-43-22.284-43-49.781 19.251-49.781 43-49.781z" fill="url(#ci)"/>
   <path d="m225.89 565.76 13.929-11.786s11.786 11.429 20.357 26.071c8.5714 14.643 9.8214 25.536 9.8214 25.536l-16.429 11.25s-2.5-18.393-11.25-31.786-16.429-19.286-16.429-19.286z" fill="url(#be)"/>
   <path d="m500 425.4s11.25 13.393 14.107 33.75c2.8572 20.357-1.0714 31.429-1.0714 31.429l24.107-4.8214s7.3214-18.036 4.8214-35.893-18.393-27.5-18.393-27.5z" fill="url(#bl)"/>
   <path d="m227.28 544c-0.77026-2e-3 -1.5391 0.18304-2.2812 0.5625-5.9375 3.0357-4.0312 17.75-4.0312 17.75l3.3125 1.9375c5.4018-5.0446 9.8348-8.7723 14.031-12.031 0 0-5.6394-8.2059-11.031-8.2188zm42.938 65.156-16.656 12.25-4.6875 11.281c4.6952 3.5804 12.88 7.7873 18.562 0.96875 5.6821-6.8185 2.7812-24.5 2.7812-24.5z" fill="url(#cf)"/>
   <path d="m311.79 476.83s14.957 16.629 22.143 22.857c8.0357 6.9643 28.929 15.268 43.214 10.893 14.91-4.566 20.582-27.462 19.375-39.732-0.94142-9.5724-12.679-19.911-12.679-19.911l-2.8572 1.875s0.53572 9.6429-2.1428 14.821c0.26786-6.25-2.2322-32.054-2.2322-32.054l-68.393 6.7857z" fill="url(#bd)"/>
   <path d="m447.34 756c-4.6978 0.0757-9.7164 1.2738-14.594 3.6875-14.189 7.0217-21.734 21.711-16.844 32.812 2.5978 5.8975 8.1738 9.6037 14.969 10.719 6.7307-11.583 14.539-30.31 20.938-46.938-1.4425-0.20786-2.9411-0.30586-4.4688-0.28125zm-59.625 27.906-33.438 38.469s2.303 1.6349 3.2188 5.8438c7.1577 4.0924 17.533 4.1522 27.312-0.6875 14.281-7.0672 21.859-21.858 16.938-33.031-2.483-5.6367-7.664-9.2735-14.031-10.594z" fill="url(#cd)"/>
   <path d="m512.05 421.34 12.277-1.6072s14.777 8.7054 19.598 25.67c4.8214 16.964-6.4286 44.821-6.4286 44.821l-1.4286-2.5-9.5536 2.0536s7.8571 12.054 23.214 10.268c15.357-1.7857 29.375-20.714 24.464-49.643-4.9107-28.929-24.018-41.161-36.607-42.054-12.589-0.89286-20.893 3.8393-23.75 7.1429-2.8571 3.3036-1.7857 5.8482-1.7857 5.8482z" fill="url(#az)"/>
   <path d="m185.31 579.32s6.4719-12.493 12.722-14.636 19.464-1.6071 26.071 3.3929c6.6072 5 13.393 12.857 19.286 25.536 5.8928 12.679 8.3928 20.536 5.8928 28.393s-4.1071 14.464-10.179 19.107-9.4643 3.3929-9.4643 3.3929-0.0882-10.27-3.75-11.786c0 0 3.8393 23.482-10.089 38.393-13.929 14.911-28.75 19.643-28.75 19.643s8.9507 0.0751 18.295-6.4909c0 0-9.991 29.795-26.152 42.295s-23.036 17.321-30 12.589c-6.9643-4.7322 2.5-18.929 6.5179-23.125 4.0178-4.1964 13.571-17.679 13.571-17.679l12.857 4.5536s-16.875-6.7857-28.036-19.286c-11.161-12.5-17.679-19.732-17.679-19.732l2.6786 7.4107s-11.07 13.123-42.132 22.467c-31.062 9.3439-38.386 15.657-51.013 4.2932-12.627-11.364-14.142-24.496-9.3439-30.052 4.7982-5.5558 10.354-10.102 18.94-10.354 8.5863-0.25254 45.457-10.102 57.326-15.91 11.869-5.8084 15.657-9.5964 15.657-9.5964s14.142 23.234 38.133 23.486 37.502-26.895 36.744-30.557c-0.75762-3.6618-3.5355-8.5863-3.5355-8.5863s4.1669 17.173-14.647 28.411-30.431 8.9651-45.204-4.1669-15.657-18.688-20.203-21.213c-4.5457-2.5254-20.961-7.7024-28.158-17.93-7.1973-10.228-2.5254-24.496 14.142-31.567 16.668-7.0711 38.512 6.8185 45.962 11.996 7.4499 5.177 22.602 2.1466 28.284 1.0102 5.6821-1.1364 13.258-0.75762 20.077 3.6618s15.279 12.879 15.279 12.879-6.8677-18.095-30.101-20.242z" fill="#ffe680"/>
   <path d="m140.54 672.9s-10.179 10.893-24.375 16.786c0 0-9.1964 10.893-18.125 16.964-8.9286 6.0714-19.286 10.714-21.071 15.179-1.7857 4.4643 3.75 20 16.964 22.857 13.214 2.8571 48.393-22.143 52.857-25.536 4.4643-3.3929 18.929-21.429 18.929-21.429s-14.732-10.893-25.179-24.821z" fill="url(#bf)"/>
   <path d="m198.04 838.08s6.6072 6.25 14.821 8.75c8.2143 2.5 34.464 8.75 51.964 10.357s40.536 1.4286 49.107-0.53571c8.5714-1.9643 21.071-5.1786 21.071-5.1786s5.3571 5.8928 2.5 13.214-11.25 21.786-26.25 27.857c-15 6.0714-62.857 23.929-81.429 26.071-18.571 2.1429-36.607 5.8929-45.179 2.5-8.5714-3.3928-19.821 3.2143-23.571 4.8214s-8.9286 0.35714-8.3929-4.1071c0.53572-4.4643 3.75-8.5714 6.9643-9.8214s-2.8572-12.143-3.5714-20.357c-0.71429-8.2143-3.2143-28.214 8.0357-36.607 11.25-8.3928 21.964-10.536 26.786-12.321 4.8214-1.7857 7.1428-4.6429 7.1428-4.6429z" fill="#f2f2f2"/>
   <path d="m338.04 850.76s7.5893-3.3036 9.7322-4.6429c4.6429 0.625 19.643 4.9107 37.589 4.9107 17.8 0 36.964-3.4822 48.214-10.804 11.25-7.3214 13.214-14.107 13.214-16.696 5.8929 0.0893 23.125 3.9286 30.625 14.196 7.5 10.268 5.3571 17.946 5.4464 19.018 0.0893 1.0714 3.0357-0.17857 3.9286 2.5893 0.89285 2.7679 0.17857 6.9643-3.9286 8.6607-4.1071 1.6964-14.464 3.125-21.429 8.5714-6.9643 5.4464-14.196 13.304-36.339 11.607-22.143-1.6964-48.214-1.9643-64.464-2.6786-16.25-0.71428-28.75-7.0536-28.75-7.0536-7e-3 0.0247 7.5899-7.8769 8.6607-15.357 1.1904-8.3157-2.5-12.321-2.5-12.321z" fill="url(#bj)"/>
   <path d="m554.51 409.16c6.566 3.6618 12.992 13.384 16.742 20.884s5.9235 18.587 6.4286 27.679c0 0 10.179 6.7857 21.25 0.53572s23.393-20.536 21.607-36.25c-1.7857-15.714-9.1072-20.179-19.107-24.464 0.53572-7.5 7.8572-25.714 4.1072-38.214s-16.429-16.964-21.607-16.429c-5.1786 0.53571-22.321 2.8571-23.929 11.071-1.6071 8.2143 5.8929 24.286 5 31.607s-10.492 23.58-10.492 23.58z" fill="url(#bh)"/>
   <path d="m604.82 395.76c1.25 0.53571 17.103 5.9226 18.929 23.571 1.971 19.059-10 33.929-21.964 40.893-12.019 6.9961-24.107 0.35715-24.107 0.35715-0.12627 15.026-3.75 25.179-3.75 25.179s8.9286 5.1786 22.143 5.7143c13.214 0.53572 23.393-1.6071 23.393-1.6071s30.29 8.4416 47.5 11.071c6.5907 1.0071 14.821 1.7857 19.286-0.89286 4.4643-2.6786 13.571-13.393 11.964-20.714s-7.5-7.6786-13.75-7.6786-12.981-1.8902-20.893-3.9286c-6.675-1.7198-15.893-4.8214-15.893-4.8214s4.6429-10.893-4.6428-45.357c2.5 1.4286 4.375 5.5357 4.375 5.5357s47.411-16.071 50.268-38.214c2.8572-22.143-3.3928-32.321-10.179-34.643-6.7857-2.3214-14.821 0.71429-21.964 8.75-7.1429 8.0357-21.25 14.643-31.964 21.964s-28.75 14.821-28.75 14.821z" fill="url(#bi)"/>
   <path d="m648.3 426.38c3.5714 14.107 4.1071 28.482 2.0536 35.625 0 0 21.071 2.6786 40.268-4.8214s24.821-11.786 26.071-20.714c1.25-8.9286 0.53571-17.679-9.375-20.179s-12.5 2.4107-23.304 4.7322c-10.804 2.3214-27.232 5.4464-35.714 5.3571z" fill="url(#bk)"/>
   <path d="m192.14 885.76s-4.8214-8.9286 0.35714-16.429 18.036-7.6786 18.036-7.6786-10.998 4.0419-14.643 9.0179c-4.6429 6.3393-3.75 15.089-3.75 15.089z"/>
   <path d="m454.55 842.81s3.75 3.6607 5.2679 8.8393 0.35714 10.268 0.35714 10.268 3.125-7.5 0.625-12.857-6.25-6.25-6.25-6.25z"/>
   <path d="m470.88 417.34c-5.604 2.9595-15.269 8.0528-24.094 12.531-7.8653 3.9913-21.02 8.6327-29.188 11.375 3.2498 15.659 20.07 27.929 35.844 22.562 18.56-5.8431 26.111-29.847 17.438-46.469zm3.4062 51.281c-0.65529-0.0107-1.3082 0.0199-1.9688 0.0625-18.434 0.80001-30.789 21.371-26.875 38.562 0.98341 6.8791 4.6197 13.272 9.7188 17.969 5.47-3.2934 13.181-7.7114 20.75-11.25 11.174-5.2243 22.485-8.0968 26.5-9.0312 0.95997-7.426-0.37754-15.15-4.3438-21.531-4.8286-8.562-13.952-14.621-23.781-14.781zm-187.97 28.688c-5.6256 2.0575-17.481 13.978-23.469 19.156-4.2518 3.6773-15.19 11.653-23.781 17.812 6.6165 10.013 18.899 16.336 30.844 12.594 19.945-5.6979 27.664-32.372 16.656-49.156-0.081-0.1362-0.16687-0.2715-0.25-0.40625zm124.84 47.375c-0.48135 2.5e-4 -0.95604 0.0107-1.4375 0.0312-21.557 0.60749-38.05 19.367-42.812 39.281-6.7406 25.403 2.5793 56.808 27.25 69 17.015 8.7471 38.887 1.8446 49.969-13.438 20.64-26.116 16.423-70.22-12.406-88.844-6.1595-3.772-13.342-6.035-20.562-6.0312zm-102.25 0.75c-23.279 1.1788-31.315 25.5-28.812 38.594 1.3094 9.1652 7.3236 17.467 15.25 22.031 0.55044-0.46574 1.4134-1.1719 2.0625-1.7188 0.26303-0.22445 0.54573-0.46194 0.8125-0.6875 1.0498-0.88235 2.0309-1.6967 3.1875-2.6562 3.0427-2.5242 6.1233-5.0475 8.4062-6.75 1.3529-1.0089 3.1067-2.188 4.9688-3.4062 0.0434-0.0308 0.0815-0.063 0.125-0.0937 3.2859-2.3289 6.758-4.7006 10.438-7.0625 0.0501-0.0321 0.10611-0.0616 0.15625-0.0937 0.46935-0.35974 0.93989-0.722 1.3438-1.0625 1.9989-20.179-0.37544-37.768-17.938-37.094zm162.88 103.88c-22.585 0-40.875 21.195-40.875 47.344 0 15.877 6.7348 29.91 17.094 38.5 20.246-19.875 36.929-53.643 42.125-80.812-5.5195-3.2151-11.744-5.0312-18.344-5.0312zm-150.94 1.6875c-0.51549-5e-3 -1.0449 0.0116-1.5625 0.0312-23.181 0.61696-39.475 23.465-39.875 45.281-1.4682 22.117 12.725 46.372 35.75 49.875 20.532 3.3222 39.033-13.096 44-31.969 7.2992-23.492-3.4583-53.257-27.719-61.469-3.4445-1.0857-6.9853-1.717-10.594-1.75zm-54.688 106.88c-0.11562 0.27704-0.22494 0.53144-0.34375 0.8125-5.4678 12.935-19.867 29.02-29.125 38.594 5.9229 13.325 23.585 19.813 37.031 13.719 15.695-5.5253 24.09-26.271 14.562-40.406-4.7184-7.6035-13.298-12.218-22.125-12.719zm78.688 18.531c-0.61845-7e-3 -1.2258-3e-3 -1.8438 0.0312-17.098 0.18789-32.193 17.684-27.844 34.625 1.4573 7.0265 5.987 12.658 11.844 16.281 8.6432-0.9048 18.142-2.2512 22.812-4.0938l21.875-26.062c-0.62131-2.8027-1.7155-5.5229-3.4062-8.0312-4.9503-7.9773-14.161-12.651-23.438-12.75z" fill="url(#ch)"/>
   <path d="m388.91 448.04s2.7779-3.5355 11.112-2.5254 10.859 7.8287 13.637 17.425 5.3033 27.527 2.5254 38.891-8.8388 20.708-21.466 26.011c-12.627 5.3033-22.476 4.5457-26.769-0.75761-4.2931-5.3033 11.112-10.859 16.668-14.395 5.5558-3.5355 12.879-10.102 15.657-23.486s2.7779-20.456 0.25253-24.496c-2.5254-4.0406-11.617-16.668-11.617-16.668z" fill="url(#bg)"/>
   <path d="m469.97 420.09-3.0312 1.5938c-15.072 8.2698-30.547 15.753-46.969 20.875 3.9389 15.398 22.979 26.155 37.469 17.375 13.356-7.4396 18.581-25.902 12.531-39.844zm-184.5 79.812c-12.884 8.9778-23.308 21.321-36.656 29.812-2.228 2.4366-9.9934 4.3038-4.75 7.625 8.8642 10.426 26.038 11.555 35.781 1.625 10.198-9.7089 12.973-26.981 5.625-39.062z" fill="url(#cb)"/>
   <path d="m267.24 761.79-0.29066 0.66852c-6.3723 12.997-16.252 23.882-26.072 34.356 7.4279 14.387 28.809 16.812 39.937 5.3481 9.6212-8.7828 10.596-25.879 0.0581-34.472-3.8252-3.2708-8.6281-5.3955-13.632-5.9004z" fill="url(#cc)"/>
   <path d="m166.69 655.62c-23.991-0.25254-38.156-23.5-38.156-23.5s-3.787 3.8166-15.656 9.625-48.726 15.654-57.312 15.906c-8.5863 0.25253-14.139 4.7879-18.938 10.344-4.7982 5.5558-3.2832 18.698 9.3438 30.062s19.938 5.0314 51-4.3125 42.125-22.469 42.125-22.469l-2.6562-7.4062s6.4955 7.25 17.656 19.75c11.161 12.5 28.062 19.281 28.062 19.281l-12.875-4.5625s-9.5446 13.491-13.562 17.688c-4.0179 4.1964-13.496 18.393-6.5312 23.125 6.9643 4.7321 13.839-0.0937 30-12.594 16.161-12.5 26.156-42.312 26.156-42.312-9.3439 6.566-18.281 6.5-18.281 6.5s14.821-4.7143 28.75-19.625c13.929-14.911 10.094-38.406 10.094-38.406 0.0423 0.0175 0.0836 0.0427 0.125 0.0625-26.215 15.174-39.385 21.124-59.344 22.844z" fill="url(#bc)"/>
   <path d="m205.53 563.5c-2.8992 0.092-5.5469 0.51786-7.5 1.1875-6.25 2.1429-12.719 14.625-12.719 14.625 23.234 2.1466 30.094 20.25 30.094 20.25s-0.11868-0.0874-0.125-0.0937c3.7317 7.3549 8.0236 23.717 10.75 33.312 3.5283 1.7095 3.625 11.719 3.625 11.719s3.3661 1.2679 9.4375-3.375 7.6875-11.268 10.188-19.125 0.0179-15.696-5.875-28.375-12.705-20.562-19.312-25.562c-4.5424-3.4375-12.184-4.7649-18.562-4.5625z" fill="url(#ba)"/>
   <path d="m115.59 568.06c-3.3602 0.0476-6.6561 0.61167-9.7812 1.9375-16.668 7.0711-21.354 21.366-14.156 31.594 7.1973 10.228 23.642 15.381 28.188 17.906 4.5457 2.5254 5.414 8.0868 20.188 21.219s26.405 15.425 45.219 4.1875 14.625-28.438 14.625-28.438 0.1476 0.27617 0.21875 0.40625c-2.8091-11.891-7.4426-30.065-8.375-33.719-4.1867-0.94506-8.2574-0.80478-11.656-0.125-5.6821 1.1364-20.831 4.1458-28.281-1.0312-6.053-4.2063-21.627-14.144-36.188-13.938z" fill="url(#bb)"/>
  </g>
  <g transform="matrix(1.0617 0 0 1.0617 -26.973 -32.976)">
   <path d="m113.56 491.14c-7.1973 1.7678-21.127 7.154-23.399 17.508-2.2728 10.354 6.566 32.577 34.598 48.235 28.032 15.657 58.589 18.688 72.478 8.8388 13.89-9.849 10.469-29.284 4.0406-35.355 0 0 9.5294-35.392 22.12-44.343 14.139-10.051 38.839-11.696 51.429-12.768 12.589-1.0714 22.589-6.25 22.589-6.25s15.089 15.714 44.554 10.179c29.464-5.5357 42.143-28.036 50.357-36.786 8.2143-8.75 15.893-22.143 27.321-39.464s8.9286-34.821 8.9286-34.821 12.679 6.6071 29.107 2.6786 34.107-17.857 34.107-17.857 11.786 11.607 19.643 10.893c7.8572-0.71429 13.214-10.357 11.786-16.964s-18.75-26.429-29.107-55.714c-10.357-29.286-15.357-60.536-33.214-68.036s-33.214-4.6429-42.5-2.6786c-9.2857 1.9643-14.107 2.8571-14.107 2.8571s-8.3036-18.839-36.964-30.982-46.607-11.339-46.607-11.339 7.7678-15.536 2.4107-30.625c-3.2143 12.232-5.523 18.322-10.969 24.572s-8.9413 7.1249-8.9413 7.1249 5.3571-29.821-2.5-44.018c3.4821 32.411-3.0357 41.696-3.0357 41.696s-10.357-25.268-30.982-31.339c18.571 9.2857 15.714 29.643 15.714 29.643s-30.089 2.8571-58.661 17.411-35.625 23.125-35.625 23.125-3.75-9.1071-19.643-5-23.304 12.589-26.339 28.482c-3.0357 15.893-0.26786 42.768 0.0893 54.643 0.35715 11.875-4.0178 37.054-7.9464 49.643s-7.8571 18.125-6.25 24.018c1.6071 5.8929 3.8393 6.4286 3.8393 6.4286s-12.004 14.209-17.321 38.929c-4.5096 20.966-5.0478 51.105-0.99809 77.438z" stroke="#000" stroke-linejoin="round" stroke-width="5"/>
   <path d="m363 320c-11.311 0.44366-19.516 5.737-33.438 13.25-9.232 4.9823-20.445 15.501-30.307 31.687 3.0105-9.8653 6.6512-14.718 6.6512-14.718-8.0932 1.2687-14.984 2.3782-22.312 0.0937-25.943-8.0871-30.296-17.901-69.438-15.906-43.637 2.2242-66.427 18.691-86.125 52.531s-12.492 85.986-10.219 102.91c6.8117-0.91496 13.475-0.16551 21.562 8.125-7.4504-3.604-14.833-6.0046-22.062-4.3438-13.214 3.0357-25.326 10.449-23.75 21.938 1.5855 11.555 20.545 35.022 41.438 43.594 20.893 8.5714 51.933 15.239 63.562 0.125 13.773-17.899-4.5923-31.071-21.781-40.281 14.913 2.165 20.719 8.7188 20.719 8.7188s4.8452-16.353 10.844-27.906c6.8185-13.132 16.07-20.344 28.781-24 15.768-4.5352 35.743-3.9275 52.785-9.7086 23.005-7.804 33.601-15.153 51.152-28.916s27.561-42.683 26.625-56.438c-0.97968-14.388-7.3125-24.375-7.3125-24.375-6.8185 1.5152-21.344 15.406-21.344 15.406s6.678-14.905 20.062-21.219 26.781 0 26.781 0-13.962 0.30251-20.844 4.4062c0 0 3.671 8.9838 5.3125 16.812 1.6415 7.8287-0.5 24.625-0.5 24.625s2.1474 8.0628 2.6524 15.134c0.50508 7.0711-1.1439 16.789-8.2149 33.835-7.0711 17.046-26.29 21.477-36.5 21.969-11.488 0.55342-16.781-6.3124-16.781-6.3124-3.5355 2.2728-10.094 4.1875-10.094 4.1875s10.109 11.608 33.469 10.219 33.189-11.365 42.406-21.719 40.792-52.892 45.969-66.781 1.5111-34.241-5.8125-44.469-34.733-21.207-48.875-22.344c-1.7678-0.14205-3.4466-0.18838-5.0625-0.125z" fill="#b9dcdf"/>
   <path d="m152.68 352.99c10.714-10.536 25.357-14.464 25.357-14.464l-5.8036-1.0714s1.7857-1.9643 4.4643-1.6072c0 0-6.5179-29.554-4.375-52.054s10.74-25.345 17.857-25.536c4.7205-0.12627 15.249 1.8306 18.149 27.74 2.5145 22.462 2.0293 36.367 0.6007 40.653-1.4286 4.2857-2.8571 5.8928-2.8571 5.8928s15.177-1.0466 24.643-1.0714c12.858-0.0337 30 6.6072 30 6.6072s-10.179-46.071 0-67.679c10.179-21.607 23.929-33.75 36.429-32.857 12.5 0.89286 27.679 15.536 34.464 33.75 6.7857 18.214 2.3214 56.25 2.3214 56.25s12.857-8.75 25.536-9.2857c10.184-0.4303 15 5.3571 20.536 6.7857 5.5357 1.4286 16.607 1.9643 22.5 3.2143s11.786 5.7143 11.786 5.7143 0.89286-33.571-14.286-55.893-27.5-28.571-27.5-28.571 50.714-8.9286 69.286 0.89286c18.571 9.8214 34.286 50.179 38.571 65.357 4.2857 15.179 8.0357 27.5 14.643 32.857s16.607 14.821 21.964 5.7143c5.3571-9.1072 0.53571-13.75-4.4643-20.357-5-6.6071-16.429-27.5-23.036-49.107-6.6072-21.607-15.893-61.964-41.429-64.643-25.536-2.6786-58.036 9.6429-66.786 9.8214s-15.357-5.1786-15.357-5.1786 8.3928 3.3929 16.964 1.7857c8.5714-1.6072 17.321-5.3572 17.321-5.3572s-11.468-19.874-38.036-29.643c-28.824-10.599-43.798-9.6518-43.798-9.6518-3.9143 5.177-14.238 10.902-14.238 10.902s12.635-12.276 15.893-19.464c2.4403-5.3846 2.6786-15.714 2.6786-15.714-1.7857 15.446-19.821 27.857-19.821 27.857l-1.0714-3.9286-4.6428-0.17858s-7.7679-16.071-13.571-20.179c3.8393 15.714 0 21.964 0 21.964l-1.4286-5s-31.25 5.7143-53.571 16.429-54.286 30.893-63.036 59.286-3.75 57.857-1.9643 66.786c1.7857 8.9286 0.53571 12.857-2.3214 18.036s-7.5 7.7679-8.5714 14.196z" fill="url(#cg)"/>
   <path d="m379.82 250.93c13.036-1.6071 37.857-4.6429 51.964-1.4286 13.683 3.1176 20.357 12.857 24.464 19.107s15 26.429 19.464 43.393c4.4643 16.964 7.8571 23.929 10.357 29.643 1.3505 3.0868 3.9286 6.6071 3.9286 6.6071s-16.964 14.821-31.786 17.321-30.893-3.5714-30.893-3.5714c-1.4286-14.821-10.179-26.25-10.179-26.25s1.3002-30.541-10.714-52.143c-9.8661-17.739-14.983-22.783-26.607-32.679z" fill="url(#bm)"/>
   <path d="m134.2 372.36c5.4927-8.7757 14.821-16.518 14.821-16.518s1.25-7.5893 5.9821-13.036 6.25-9.9107 6.3393-15.268c0.0893-5.3571-3.0357-21.071-4.1072-28.839-1.0714-7.7679-5.3304-22.894-2.6788-31.48 2.6516-8.5863 9.5964-17.299 9.5964-17.299 6.9448-18.183 21.718-30.81 21.718-30.81s-3.1567-6.6923-10.985-5.8084c-7.8287 0.88389-25.254 5.0508-29.547 25.001s0.75761 48.866 0.3788 60.23c-0.3788 11.364-4.9245 32.956-8.2075 44.194s-6.566 18.435-6.3135 22.981 3.0029 6.6512 3.0029 6.6512z" fill="url(#bn)"/>
   <path d="m367.69 402.06c-3.9143 11.996-11.75 22.875-11.75 22.875s7.4464-4.4413 12.781-4.0625c0 0 1.2416-13.067-1.0312-18.812zm-30.281 41.938l-24.25 15.906s4.4091 4.9337 10.344 5.3125c5.9346 0.3788 9.5312-0.5625 9.5312-0.5625s-1.1964-4.7529-0.3125-10.688c0.88389-5.9346 4.6875-9.9688 4.6875-9.9688z" fill="url(#bo)"/>
   <path d="m335.5 463.89s-2.9042-13.826 7.3867-24.307c10.291-10.48 8.7126-10.291 15.152-13.258 6.4397-2.9673 10.291-2.841 10.291-2.841s-3.7249 21.403-11.996 29.294-20.834 11.112-20.834 11.112z" fill="url(#bp)"/>
   <path d="m178.8 335.79c3.6618 0.69448 7.955-0.75761 7.955-0.75761s-8.7126-18.751-4.3563-33.082 14.357-13.254 17.993-11.49c4.4454 2.1564 6.7554 10.354 6.7554 10.354-0.88388-4.2932-0.0959-37.736-15.784-40.027-17.3-2.5272-17.93 27.527-17.362 37.376 0.56821 9.849 4.7982 37.628 4.7982 37.628z" fill="#fff"/>
   <path d="m188.9 334.52 14.016-1.8309s6.2503-3.4724 4.4194-20.582-7.3855-20.364-12.374-20.519c-5.1128-0.1582-12.438 8.46-11.806 20.266 0.63135 11.806 5.7452 22.665 5.7452 22.665z" fill="url(#bq)"/>
   <path transform="matrix(1.5469 0 0 1.4855 -105.61 -156.65)" d="m201.53 321.77c0 3.8006-1.908 6.8817-4.2616 6.8817s-4.2616-3.081-4.2616-6.8817 1.908-6.8817 4.2616-6.8817 4.2616 3.081 4.2616 6.8817z"/>
   <path transform="matrix(1.9189 0 0 1.8427 -185.63 -287.2)" d="m201.53 321.77c0 3.8006-1.908 6.8817-4.2616 6.8817s-4.2616-3.081-4.2616-6.8817 1.908-6.8817 4.2616-6.8817 4.2616 3.081 4.2616 6.8817z" fill="#fff"/>
   <path d="m263.4 339.19 21.15 9.1545s-7.6258-17.467-2.5885-40.974c4.1669-19.445 17.425-22.602 26.264-21.466 8.1549 1.0485 16.794 6.8185 19.193 23.486 1.4599 10.143 0 22.476 0 22.476l4.0406-2.3991s7.1973-52.907-9.5964-71.595c-16.794-18.688-28.789-24.117-44.699-8.3338-15.91 15.784-19.193 33.082-18.814 52.275 0.37881 19.193 5.0508 37.376 5.0508 37.376z" fill="#fff"/>
   <path d="m288.02 348.92s8.7126 1.6415 20.329-1.389c9.0914-11.743 16.162-14.016 16.162-14.016 1.7678-9.7227 2.9456-43.643-18.435-44.952-23.23-1.4215-24.244 30.052-23.486 40.28 0.75761 10.228 5.4296 20.077 5.4296 20.077z" fill="url(#br)"/>
   <path transform="matrix(1.115 0 0 1.113 -37.662 -37.959)" d="m322.49 327.96c0 7.7408-4.6922 14.016-10.48 14.016-5.7881 0-10.48-6.2751-10.48-14.016s4.6922-14.016 10.48-14.016c5.7881 0 10.48 6.2751 10.48 14.016z"/>
   <path transform="matrix(1.3216 0 0 1.3396 -114.23 -130.17)" d="m322.49 327.96c0 7.7408-4.6922 14.016-10.48 14.016-5.7881 0-10.48-6.2751-10.48-14.016s4.6922-14.016 10.48-14.016c5.7881 0 10.48 6.2751 10.48 14.016z" fill="#fff"/>
   <path d="m126.89 487.89s-14.747-68.384 8.4668-99.098c23.214-30.714 41.071-45 72.143-47.5s45.357 2.8572 58.929 11.786 15 30 7.1429 40.714-76.339-25.049-87.451-26.312c-11.112-1.2627-25.569 6.3766-25.569 6.3766s6.8817-3.2199 11.711-2.7148c4.8298 0.50507 9.8174 0 18.151 3.7881 8.3338 3.7881 68.817 22.728 64.524 37.754s-78.161-16.541-90.282-17.678c-12.122-1.1364-17.804 5.9346-17.804 5.9346s8.8388-5.177 17.93-2.2728c9.0914 2.9042 69.448 28.284 65.912 41.164-3.5355 12.879-69.827 63.766-69.827 63.766s-17.183-12.93-33.976-15.708z" fill="url(#bs)"/>
   <path d="m145.34 401.95s6.3134-6.0609 13.006-6.0609 17.173 6.9448 17.173 6.9448-10.993-4.5291-18.056-4.5457c-6.1385-0.0145-15.285 5.5599-12.122 3.6618z"/>
   <path d="m156.95 377.08s3.0305-6.9448 13.763-8.46 27.4 10.354 27.4 10.354-19.445-8.8388-28.032-7.3236c-8.5863 1.5152-13.132 5.4296-13.132 5.4296z"/>
   <path d="m298.57 377.99c1.8865-18.836 16.786-35.357 41.071-47.946 24.286-12.589 34.911-7.5 47.411-2.2321s24.643 16.518 25.714 24.464c1.0714 7.9464-5.2679 10.268-12.5 5.0893s-24.821-14.286-40.179-7.3214c-15.357 6.9643-22.589 21.339-23.839 27.5-1.25 6.1607-7.1429 24.196-21.071 24.107-13.929-0.0893-17.683-12.919-16.607-23.661z" fill="url(#bt)"/>
   <path d="m289.28 175.38c-0.0244 6.8613-3.2495 13.111-7.5625 18.312-1.3451-3.0799 0.28663-9.4843-3.5938-10.906-30.548 6.971-61.162 18.247-84.969 39.25-13.965 11.042-24.062 27.06-26.719 44.969-3.3016 18.612-2.0927 37.843 1.625 56.281 0.33185 4.301 0.52198 8.8129-1.125 12.875 1.6413-2.1443 6.9784-2.2773 4.6562-5.875-3.1282-19.113-2.9388-34.282 1.4316-53.544 2.0973-9.2434 6.9761-17.939 16.665-18.446 10.527-0.55157 14.365 6.0268 16.904 15.161 4.2842 15.412 7.2485 30.391 7.4055 46.33-0.1118 2.797-0.58722 5.5785-1.3438 8.25 14.278-1.3029 29.881-0.55158 42.969 3.8438-2.8177-14.511-4.147-29.711-3.0625-44.562 1.5492-18.25 12.517-31.48 26.321-43.212 8.4951-7.2197 20.248-8.6512 30.022-2.8725 11.392 6.7355 44.285 10.975 54.5-13.447-2.9525-2.3835-5.5001-5.3135-7.4688-8.5938 11.018 1.3348 22.351 6.6768 33.156 1.8125 1.7973-0.89781 7.1297-0.87742 3.4062-3.5312-16.896-20.184-43.933-28.163-69.219-31.281-5.5267-0.81266-8.119 5.8302-12.938 7.7188-4.6008 2.9471-9.8356 4.4922-15.188 5.4062 2.6025-3.5751 6.4071-8.8503 3.8125-13.156-4.545-0.65584-6.944-4.4818-8.3125-8.4375-0.38332-0.6782-1.0647-1.9254-1.375-2.3438zm-123.66 163.53c-0.0363 0.0238-0.0584 0.11488-0.0625 0.3125 0.34146 0.12675 0.1715-0.38405 0.0625-0.3125z" fill="url(#bu)"/>
   <path d="m436.81 222.41c-19.684 0.38112-38.348 7.7631-57.688 10.344-6.158 0.17781-11.525-6.4563-17.5-4.2188-5.7004 2.9463-8.7404 12.002-2.7188 16.125 5.218 5.2214 13.116 4.2134 19.476 2.4373 20.285-2.4687 41.847-5.4964 61.649 0.96893 15.68 7.2839 23.42 24.252 31 38.812 8.2167 16.391 11.828 34.595 18.531 51.469 3.904 8.3411 11.242 14.84 19.875 17.969 6.0745 1.1748 8.963-7.3775 6.9062-11.938-4.333-8.4422-11.22-15.455-14.969-24.25-11.533-21.002-16.398-44.649-24.75-66.906-5.2746-12.973-13.719-28.448-28.906-30.5-3.545-0.42256-7.2864-0.4447-10.906-0.3125z" fill="url(#bv)"/>
   <path d="m390.78 391.56c-8.1434-0.19474-18.496 3.4336-20.875 4.3125-9e-3 0.0755-0.0625 0.53125-0.0625 0.53125s2.1512 8.0539 2.6562 15.125c0.50508 7.0711-1.1477 16.797-8.2188 33.844-7.0711 17.046-26.29 21.477-36.5 21.969-11.488 0.55342-16.781-6.3125-16.781-6.3125-3.5355 2.2728-10.094 4.1875-10.094 4.1875s10.109 11.608 33.469 10.219 33.189-11.365 42.406-21.719c6.0853-6.8355 21.893-27.677 33.438-45.062-2.066-4.1793-7.1112-13.184-13.688-16.031-1.6239-0.70312-3.617-1.0115-5.75-1.0625z" fill="url(#bw)"/>
   <path d="m138.93 546.11c-6.3393-3.4822-16.25-9.0179-18.393-14.911-2.1428-5.8929 0.26786-8.3036 2.2322-8.4822 1.9643-0.17857 14.018-1.4286 27.411 7.5893s20 16.429 18.75 19.643c-1.25 3.2143-7.7679 3.9286-14.732 2.5893-6.9643-1.3393-8.3502-2.6288-15.268-6.4286z" fill="url(#bx)"/>
   <path d="m122.99 534.79c-3.6618-4.0406-5.8084-8.0812-3.4093-11.869s16.668-3.6618 29.926 4.1669 22.097 14.268 21.466 21.592c-0.63135 7.3236-15.784 4.0406-15.784 4.0406s10.985 0.88388 11.996-3.4093c1.0102-4.2931-8.7126-13.637-21.845-20.329-12.246-6.2409-19.617-6.6252-23.107-3.9143-3.5508 2.7578 0.75762 9.7227 0.75762 9.7227z"/>
   <path d="m177.11 524.24c-28.164-16.682-38.091-28.656-53.394-28.487-15.303 0.16856-24.036 7.754-25.616 13.569-1.5802 5.8155 2.8277 15.424 6.3208 18.964 3.4931 3.5399 8.3169 3.7084 10.479 2.7813 2.1624-0.9271 1.497-7.3326 3.9089-10.198 2.4119-2.8656 8.4-3.3713 12.558-2.8656 4.1584 0.50571 19.129 4.8041 29.941 12.39 10.812 7.5854 15.636 8.4282 19.461 6.7426 3.8258-1.6856 1.8204-9.6496-3.6594-12.895z" fill="url(#by)"/>
   <path d="m188.5 262.69c-8.5957 1.1454-10.665 11.862-11.844 18.969-2.4509 17.467 1.7899 34.962 3.9062 52.281 4.5855 1.0725 2.8118-2.3428 1.75-5-4.1346-12.611-5.798-29.546 5.4688-38.969 4.8085-3.5001 12.49-3.6066 16.562 1.125-1.3286-9.4946-1.7806-21.499-10.531-27.438-1.6056-0.85368-3.5119-1.1577-5.3125-0.96875z" fill="url(#bz)"/>
   <path d="m294.06 242.31c-12.21 1.7718-20.205 13.079-26.313 22.803-11.661 22.383-7.4569 48.964-2.6872 72.603 5.0602 1.8439 12.073 5.9322 15.969 6.4375-4.144-15.973-4.4111-34.274 3.5-49 7.7247-14.304 31.187-15.6 39.594-1.3125 5.8157 8.8132 6.1613 21.004 5.875 30.406 1.4009-20.21 2.7229-41.893-6.4062-60.469-6.1957-8.9249-14.534-17.696-24.969-21.094-1.4918-0.32947-3.0344-0.48899-4.5625-0.375z" fill="url(#ca)"/>
  </g>
 </g>
</svg>
